<?xml version="1.0" encoding="UTF-8"?>
<svg enable-background="new 0 0 134.208 368.584" viewBox="0 0 134.208 368.584" xmlns="http://www.w3.org/2000/svg">
 <path d="m115.95 195.23c-0.97 1.228-2.246 2.146-4.057 2.534 1.161-1.036 1.917-2.478 4.057-2.534z"/>
 <path d="m57.638 203.34c-1.132 1.064-1.236 3.159-3.042 3.551 0.669-1.53 1.265-3.13 3.042-3.551z"/>
 <path d="m90.597 226.16c-1.697-0.839-2.69-2.38-3.042-4.563 1.117 1.095 3.341 3.735 3.042 4.563z"/>
 <path d="m122.038,322.5c-2.336-.974 1.291-2.522 3.041-2.536 .248,2.107-2.922.796-3.041,2.536z"/>
 <path d="m42.426 349.38c1.558-0.776 1.558 3.312 0 2.535v-2.535z"/>
 <path d="m56.624,3.551c1.86-.031 2.315-2.463 4.564-3.042-.849.219 2.017.859 2.535.507 1.161,5.924-5.995,6.527-4.563,9.635 2.273-.607 5.478-4.659 8.113-6.592 1.204-1.5 1.276-4.133 4.058-4.056-1.013,5.723 2.951,13.259-1.521,18.254 2.286,3.123 2.545,9.018.507,12.677 .423,1.606 1.479,2.578 2.535,3.55-.88,3.345-1.019,7.432-2.535,10.141 1.802,3.486 1.81,9.032 0,12.677 2.435,3.452 1.565,9.573-.507,12.677 1.638,5.461 10.468,3.729 12.676,8.62 5.764-1.343 8.154,3.19 11.156,6.085 .207,1.222-.926,1.102-.508,2.535 2.953.766 4.037,3.401 6.086,5.071 .07,2.776-.586,4.824-1.016,7.099 1.975.731 3.647,1.762 5.578,2.535 1.506,3.953.477,7.352-1.521,10.142 1.42,1.53 3.502,1.668 4.058,4.057 .729,3.141-1.336,5.761-3.042,7.606-.002,1.692 1.648,1.731 1.521,3.55-1.031,2.181-1.566,4.857-4.057,5.578-.142,1.999 2.168,1.551 2.026,3.549-.595,2.28-1.22,4.528-2.535,6.085 .888,2.575 1.274,5.029 0,7.606 2.951.768 5.156,2.281 5.578,5.578 5.011-.854 7.412,3.742 8.112,7.605 4.488-.976 9.591,4.584 6.593,9.635 4.547.94 6.655,7.101 3.043,10.648 5.271,2.42 3.247,8.252 0,11.155 .332,1.358 1.45,1.93 2.026,3.043-1.061,3.672-3.229,6.237-5.069,9.127 1.663,6.953-3.998,10.381-7.604,13.691-.769,3.258 2.678,3.57 3.549,6.085 .795,2.3-.535,4.786 0,7.099 .772,3.344 4.938,5.801 3.549,10.143-.078,1.431 1.434,1.271 2.029,2.027-.209,5.127 3.604,9.072 4.057,13.185 .115,1.052-.754,2.271-.508,3.55 .672,3.48 3.945,7.076 1.521,11.663 2.399,3.591 3.591,8.514 2.028,13.69 .425,1.771 2.154,2.238 3.042,3.549 .834,3.586-.933,6.16-.507,9.127 .475,3.306 4.177,6.306.507,10.648-.134,1.655 1.969,1.075 2.028,2.536 .059,4.114-1.562,6.552-3.549,8.62 3.178,3.363 1.829,10.469-2.029,12.17 .308,1.214.729,2.312.508,4.057-1.403,1.977-2.602,4.16-5.071,5.07 .162,1.19.802,1.903.509,3.551-.302,2.51-2.8,3.34-4.564,5.069-1.092,1.071-1.459,2.481-3.043,3.55-.928.627-2.393,1.26-3.549,2.028-3.096,2.058-4.681,2.386-8.619,4.058-1.789.758-3.523,2.5-5.578,3.041-1.418.375-3.068-.222-4.564,0-1.291.191-2.283,1.205-3.549,1.521-1.419.354-2.997-.271-4.564,0-1.434.249-2.754,1.301-4.057,1.521-2.521.426-4.738-.617-7.605-.509-3.168.121-6.174,1.711-10.142.509-.656-.199-1.457-1.341-2.535-1.521-.669-.113-1.756.685-2.536.507-4.96-1.129-9.603-2.784-13.184-6.085-4.727.163-6.854-2.271-8.621-5.07-4.163-.4-5.518-3.609-9.127-4.562v-2.028c-3.597-3.502-8.398-5.801-8.113-13.185-3.64-2.217-3.971-4.651-6.592-9.127-1.417-2.42-4.98-4.616-4.057-10.143-1.8-2.99-4.668-7.423-3.55-11.663-2.552-2.159-2.184-6.885-3.042-11.155-.791-3.931-3.566-7.709-.507-11.662-.334-1.693-1.577-2.479-2.028-4.057-.308-2.517 1.073-4.199 1.014-6.593-.094-3.836-3.685-7.873 0-10.647-1.285-3.539-3.179-8.31-.507-11.662-1.147-3.155-.964-7.08 1.014-9.635-.937-3.714-.334-7.818 1.521-10.143-1.971-3.3.686-6.564 1.014-9.127 .47-3.668-.962-6.768 2.535-9.128-.51-1.735-.704-3.375-.507-5.07 .242-2.082 2.028-3.167 2.535-5.071 .709-2.662-.957-8.662 3.042-9.634-1.532-4.001.321-8.731 2.535-10.648-.396-2.257.676-3.044.507-5.071 2.153-1.396 2.311-4.788 5.071-5.577 .035-4.698 4.764-4.702 5.071-9.128 1.105-1.43 3.712-1.358 3.549-4.057-.146-2.558-2.62-2.788-3.549-4.563 .909-3.734-2.925-4.837-4.564-7.606-2.193-3.707-1.891-9.141-5.071-12.17 .061-1.46-.277-3.319.507-4.057-1.089-1.447-2.417-2.654-3.042-4.563 .157-4.373 1.48-5.832-.507-9.127 3.433-4.79-1.293-12.674 4.563-15.719-1.153-1.523-.222-4.351 0-6.085 4.483-4.951 6.601-8.919 12.677-13.184 .97-.681 2.506-1.323 3.55-2.028 3.147-2.126 6.509-3.228 10.648-5.578h7.606c1.844-.86.904-4.504 2.535-5.578-1.122-5.745-1.282-11.276-1.014-17.748 .079-1.918 1.06-4.114 1.014-6.085-.055-2.401-1.364-4.547-1.521-7.099-.104-1.68.554-3.885.507-5.578-.071-2.525-1.049-4.939-1.014-7.099 .026-1.635.899-3.331 1.014-5.071 .397-6.052-3.166-12.935 1.014-18.254 2.19.269 2.843.146 4.057.507-.735.953-.745,2.634-2.028,3.041zm1.521,2.028c-4.133,3.212 3.6-1.458 2.028-3.042-.315,1.374-2.118,1.261-2.028,3.042zm3.043,16.226c5.279-.942 9.221-9.124 6.085-13.691-2.083,2.312-5.28,3.51-7.606,5.578 3.361-.43-.774,1.373 1.014,2.028 1.155-.81 2.138,2.071 3.55,1.521 .002,2.218-3.889,3.189-3.043,4.564zm3.549,9.128c-.149,1.034-1.372.995-1.521,2.028 3.938-.876 7.824-7.905 4.057-11.663-2.375,2.573-8.395,4.4-6.592,8.113 2.572-1.199 1.252,3.175 4.056,1.522zm0,13.691c3.604-1.097 6.025-6.566 3.551-10.648-4.289,1.087-8.341,4.985-7.606,8.113 .208-.637.654-1.037 1.521-1.014 .669,1.269-2.005,1.587-.507,2.028-.217-.817 1.891-1.702 2.028-.507-.528,1.52-4.22,2.515-3.042,4.057 1.209-1.495 2.22-3.188 4.564-3.549 .248.987-1.75,2.592-.509,1.52zm-5.071,14.198c2.175-.319 4.666-5.301 6.085-3.042 3.242-.485 5.359-7.77 1.014-8.62-1.946,1.773-4.727,2.71-6.085,5.071 1.865.93-.081,1.262 2.028,1.521-1.719,2.375-1.226.816 0,2.536-1.68.177-2.199,1.517-3.042,2.534zm4.057,11.156c4.117-1.293 7.753-6.136 5.07-11.156-3.106-.771-5.521,2.706-8.112,4.057 1.475.441.57.759.507,2.028 .944.07 1.695.333 2.028,1.014-.99,1.827-3,2.251-.507,2.535-.658.893-3.502,2.206-2.535,3.042 1.178-1.357 2.694-2.376 4.563-3.042v1.014c-1.403-.669-1.741,2.005-1.014.508zm-3.043,6.084c1.1-1.213-.062,1.228-.507,1.521 1.39.677 5.287,2.374 4.057,4.057 4.146-1.34 6.276-6.427 4.058-10.142-4.034-.305-7.022,3.112-7.608,4.564zm13.692,4.057c.106-.569.562-.789 1.015-1.014 .601,2.273 2.926,2.821 3.042,5.578 .059-.619.152-1.201 1.015-1.014-.552,2.072.542,2.5 1.521,3.042 .043,1.428-2.463,2.899-1.014,4.057 3.043-4.616 2.362-14.423-5.578-13.691-.956.903-1.126,1.986-.001,3.042zm9.632,3.042c2.14,1.666 1.99,4.399 2.535,6.592 .06-.619.152-1.201 1.016-1.014 1.297,3.771-.938,5.406-2.028,8.113 4.815-2.366 7.142-14.755-.507-15.719-.007,1.008-1.384.645-1.016,2.028zm-22.816,8.113c-.012-.231.128-.702.507-.507 3.434,1.77 9.462-1.256 6.085-7.606-3.167.727-7.112,3.358-7.606,5.071 2.04-.966-.786,1.581 1.014,2.536-.282-.002-.576.41 0,.506zm-25.355,1.522c2.539,2.126 7.284,5.73 9.127.507-1.527-3.037-3.317-5.81-6.085-7.605-.787,1.473 1.571,1.131 1.521,2.535-.018.51-1.18,1.13-1.014,1.521 .454,1.07 2.71,1.089 2.028,2.535-2.381-.029-4.133-3.271-6.085-1.521 .922,1.292 4.968,2.108 4.057,3.549-1.803.418-2.219-3.143-3.549-1.521zm11.664-.507c-.81,3.923-2.913,6.553-8.113,6.085-.932,2.617-1.422,5.677-4.563,6.085 .375,3.249-.624,5.124-2.536,6.085 .716,5.51-.986,10.902 2.028,15.212-.784.737-.447,2.596-.507,4.057 2.423,1.365 4.043,5.428 3.042,8.62 1.824.543 3.242,1.491 4.057,3.042 .502,3.386 2.787,4.988 5.071,6.592 1.857-2.954 5.923-1.651 8.62-.507 1.564-2.771-.813-5.469-1.014-8.113 2.097-4.739-2.659-11.18.507-16.734-3.595-2.41-1.08-6.509-1.014-10.648 .044-2.782-1.233-5.426-1.014-7.099 .136-1.036.983-2.056 1.014-3.042 .11-3.548-1.87-7.139.507-10.141-.058-.619-.152-1.201-1.014-1.014-1.439.758-3.144,1.25-5.071,1.52zm22.818-1.015c-.312,2.45 2.542,7.938-.507,10.648 3.252,2.395 1.938,8.442-.509,10.649 4.443,1.401 4.238,8.958 1.016,11.663 2.977,2.51 3.296,8.652 0,11.156 2.889,1.845 1.439,8.025 4.057,10.141 3.95-.454 6.614-1.525 10.143,0-.154-2.521-.09-4.823 1.521-5.578-2.75-3.392.655-8.133 1.521-11.156-1.263-1.921-1.755-7.413.507-8.62-1.294-2.348-3.876-6.747-1.521-9.634-1.338-2.887-4.102-4.35-3.549-9.127-2.685-1.034-4.035-3.402-4.563-6.592-3.193-.452-5.589-4.092-8.116-3.55zm22.31,12.677c1.873-2.854 4.283-7.324 2.535-12.169-2.131-.745-4.07,1.293-3.043,2.028 .006-.512.889-.638 1.016,0-.631.919-2.571,3.137-1.521,4.057 .122-.551.835-1.218 1.016-.507 .021,1.544-1.071,1.972-1.521,3.042 1.902.749-.314,2.095 2.027,2.028-.882-.142-1.312,3.03-.509,1.521zm-62.876-8.62c2.464.208 2.295,3.023 1.014,4.057 2.528.215-.202,1.088-.507,1.521 8.123,5.562 7.912-8.701 0-8.113 .557,1.937 1.344,1.587-.507,2.535zm29.41,3.549c.056-.403 1.676-1.537 1.521-.507-1.425,1.715-.027,1.581 0,4.057 2.075-.292 2.398-2.334 4.564-2.535-.028.648-.65.702-.507,1.521 3.82-.031 5.262-5.654 3.042-8.62-3.097,1.472-7.862,3.962-8.62,6.084zm27.888,3.55c1.798-.417 4.158-2.917 3.55-4.057-.873,1.662-2.675,2.396-3.55,4.057zm-61.862-.507c-2.203,1.995 2.384,3.521 1.014,6.085 2.339-.028 4.958.225 6.592-.507 1.018-3.781-4.934-6.612-8.621-5.578h1.015zm67.44,12.677c1.488-.75 3.117-3.354 4.562-2.536-.66,2.043-3.434,1.975-4.562,3.55 5.25-1.341 9.068-4.115 8.619-11.156-1.213-.645-1.865-1.852-4.057-1.521-1.908.625-1.303,4.733-4.057,3.042-.551,2.167-4.344,3.751-3.549,5.578 1.217-1.332 3.347-4.41 4.562-4.057-.32,2.227-4.12,3.636-3.55,5.071 .143-1.042 1.354-1.012 2.028-1.521-.27.955-2.67,2.347-1.521,3.042 .972-1.056 1.942-2.113 3.549-2.535 .062,1.444-3.693,1.664-2.024,3.043zm-31.945-3.042c.14-.46 1.889-1.703 2.028-.507-1.158.87-2.562,1.495-3.549,2.536 .958.056.352,1.676 1.521,1.521 1.661-2.338 9.23-4.062 9.128-8.113-.038-1.467-1.147-3.253-3.043-3.549-1.835-.288-10.258,6.183-9.634,7.606 .873-.479.83-1.875 2.535-1.521-.121.724-.835.854-1.014,1.521 1.296.547 1.775-2.183 2.536-.507-.551.12-1.218.833-.508,1.013zm-40.566-1.015c.422,1.627.432,1.051-.507,2.028 1.29.062 1.966.738 2.028,2.028 2.649-1.264 5.205.498 8.62,0v-3.042c-2.625-1.206-7.389-1.429-10.141-1.014zm40.566,14.706c1.407-1.509-.88,1.663.507,1.521 .923-1.443 2.786-1.947 4.057-3.042 .079.597-.087,1.439.507,1.521 4.677-1.976 7.235-11.029.507-11.156-2.845-.054-5.191,3.463-7.606,5.071 1.27.669 1.587-2.005 2.028-.507-.001,1.061-2.762,1.905-1.521,2.535 .761-.592 1.24-1.464 2.535-1.521 .085,1.741-3.061,2.853 0,2.028-.847,1.111-1.08,2.817-1.014,3.55zm34.988-.508c3.787-1.501 11.006-5.538 6.084-9.634-5.826.479-7.639,3.206-9.635,6.592 2.414-.877 1.229-.146 2.028,1.014 .825-.738 1.585.439 2.536.507 .087.685-2.577,1.013-1.013,1.521zm-75.554-5.577c1.23.798 2.166,1.891 4.564,1.521-.301,1.618.952,1.568 0,2.536 2.16-.375 3.495-1.575 5.578-2.028 .294-1.646-.345-2.359-.507-3.55-2.504-.708-5.929-.494-9.127-.507 .038.883-.114,1.576-.508,2.028zm2.029,9.634c.979-2.203 3.441,1.646 3.042,1.521 3.281,1.029 4.632-.487 6.592-3.55 .062-5.102-11.913-.502-9.634,2.029zm69.977,7.099c3.539-2.378 8.618-3.213 9.635-8.113-.264-.75-.75-1.278-1.014-2.028-3.303-.259-4.484,1.601-7.101,2.028 .397,2.948-4.558,3.2-3.55,5.071 1.435-.933 2.111-2.621 4.562-2.535-.314,1.544-2.727.991-3.042,2.535 1.589.203 2.8-2.563 3.55-1.521-.578,1.958-3.16,1.91-4.057,3.549 1.721.004 3.396-2.655 4.562-1.521-1.799.224-2.217,1.835-3.545,2.535zm-30.426.507c1.262-1.374.739.427 0,1.015 4.671-.971 13.426-7.428 6.085-11.156-1.594.603-2.683,1.711-4.563,2.028-.231,2.98-2.761,3.662-4.057,5.578 1.96.262 2-2.922 3.549-1.521-.326,1.555-4.098,2.295-3.042,3.549 1.016-.844 1.878-1.84 3.55-2.028-.002,1.06-2.762,1.905-1.522,2.535zm-30.424,4.564c1.961-1.757 4.464-2.973 3.55-7.606-2.811-3.5-9.576.874-10.142,2.535 .587-1.449.587.818 0,1.014 2.866-.057 4.248,1.306 6.085,1.521 .155,1.169-1.465.563-1.521,1.521 .97.236 2.183-1.563 2.028.507-.282-.001-.576.412 0,.508zm57.807,2.028c.711-.81 1.748-1.295 3.043-1.521-1.162,2.225 1.28.339 1.014,2.536 3.242-1.301 9.449-3.386 6.086-8.113h-3.551c-1.6,2.632-7.683,3.464-7.605,6.085 .57-.333 1.965-2.351 2.535-1.014-.202.701-2.882,1.436-1.522,2.027zm-29.411,0c.955-.107 2.635-2.033 3.042-1.014-.499,1.191-2.539.842-2.535,2.535 4.524,2.152 6.147-1.62 10.648,0 .518-1.875-.344-6.289-2.027-7.606-3.939.625-7.306,1.823-9.127,4.563 1.705.202-1.595,2.88-.001,1.522zm-26.368,5.578c.284-.73.791-1.237 1.521-1.521 .485.944-1.519,1.695 0,2.028 1.718-2.618 5.889-4.299 3.549-8.113-4.617-1.674-7.563,2.068-9.634,4.563 1.87.096.987,1.655 1.521,2.028 .208-.637.654-1.036 1.521-1.014 .074.674-1.706,1.887-.507,2.028 .441-.742.759-1.607 2.028-1.521 .202.873-.751,1.301.001,1.522zm55.272,6.085c3.095-3.125 12.979-3.259 9.634-9.634-4.779.798-8.716,2.44-11.662,5.071 1.295.547 1.774-2.183 2.535-.507-1.111,1.086-2.816,1.577-3.55,3.042 1.568.018 3.146-2.563 4.058-1.521-.441.781-3.188,1.831-2.028,2.536 1.021-.696 3.503-2.549 4.057-2.028-.259,1.456-4.469,1.583-3.044,3.041zm-20.791-7.606c.894,3.162 2.872,5.242 4.563,7.606 1.271-.589 2.279-1.439 3.55-2.028 1.299,2.083 1.626,5.136 3.55,6.592-2.322-5.243-4.275-15.254-11.663-12.17zm1.014,11.662c.484-.944-1.52-1.694 0-2.028 .756.595.597,2.107 2.027,2.028-1.557-6.377-5.569-15.525-13.691-10.648-.142,2.858 2.444,5.652 3.549,5.578-.665-.008-.646-1.407 0-1.521 1.196.744.943,1.07 2.536.507 .301,1.249 1.773,3.936 2.535,3.043-.403-.057-1.537-1.677-.507-1.521 1.139,1.565 2.053,3.357 3.551,4.562zm-30.931-2.535c2.096-.118 1.583-3.148 4.057-1.521 2.733-3.438 2.608-7.658-1.521-7.606-2.904.037-3.556,4.664-6.592,5.071-.114.959.571,1.118.507,2.028 1.269.669 1.587-2.005 2.028-.507-.727,1.475-.389.57 1.014.507 .074.674-1.705,1.887-.507,2.028 .525-.699 2.011-3.007 2.536-2.028-.15,1.034-1.373.994-1.522,2.028zm42.088-2.028c.049-.797-.068-1.759 1.014-1.521 .584,1.275.24,3.479 2.029,3.55-.594-2.629-3.259-5.856-3.043-7.606 1.32.395 1.824,4.227 3.043,3.043-.852-.734-1.486-3.019-.509-4.057-2.75-.153-3.371.698-5.577,0 .019,3.189 1.967,4.455 3.043,6.591zm-29.918,2.028c.437-2.484-3.386-3.35-2.028-5.071 1.6.429 1.442,2.614 3.042,3.043 .149-2.052 2.249,1.302 2.028-1.015 2.082.606 2.062,4.084 4.057,2.028 .356,1.487 1.703,1.493 0,2.536 .6.645 1.916.215 2.535-.508-2.865-3.163-6.836-11.802-12.677-7.099-.39,1.911.619,2.424.507,4.057 2.154-.632 1.357,1.687 2.536,2.029zm49.185,4.564c.66-1.538-.116-4.512 1.521-5.07 .246,3.626-.712,6.049-1.521,8.62 2.218-.318.968-4.104 2.535-5.071 1.177-.161 1.947.082 2.535.507-.463-3.424-.385-7.39-4.562-7.099-.18,1.544-1.248,6.042-.508,8.113zm-13.69,4.056c2.66-4.275 13.966-4.148 10.647-11.155-4.659.917-8.492,2.662-11.154,5.577 .958.114 1.118-.571 2.027-.507 .146.894-2.387,1.57-1.014,2.028 .334-.681 1.084-.944 2.027-1.015 .146.895-2.387,1.57-1.014,2.028 .139-.46 1.889-1.702 2.027-.507-1.382.665-4.142,2.591-3.546,3.551zm-3.549-6.085c-.125-1.425-.787-4.922-2.028-3.55 1.017.841.383,3.335 2.028,3.55zm-38.031,7.099c2.067-2.64 5.349-5.706 4.057-10.141-4.732-1.79-7.35,2.281-9.127,5.07 1.675.763 3.438.912 3.042,3.042 .703-1.888.077,1.493 1.014,1.015 .333-.729 1.453-3.216 2.028-2.028 .315,1.378-2.293,2.375-1.014,3.042zm62.878,6.593c2.862-2.632 6.164-9.729 2.534-14.198-1.25-.067-2.442-.077-3.042.507 1.604,3.527-2.212,7.185-1.521,9.635 1.314-1.56.91-4.837 3.043-5.578 .213,1.655-2.33,5.09-1.016,4.563 .809-.374-.115-2.481 1.521-2.028 .066,1.242-2.004,4.634-1.014,3.55 .686.085 1.014-2.579 1.521-1.015-.753.601-.789,1.916-1.521,2.536-.754-.799-2.267-.565-2.029,1.014 1.107.323 1.613-1.438 1.521.507-.28-.002-.573.41.003.507zm-29.41-10.65c-.039-1.65-2.299-1.082-3.549-1.521-.414,2.104 3.125.255 3.549,1.521zm-27.89,7.607c.078,1.262-.797,1.57-1.014,2.535 1.734-.064 1.583-3.537 3.042-1.014 1.491-2.623 3.164-7.669.507-10.142-3.751,1.323-6.639,6.201-7.606,8.62 1.399-2.166.539,2.107 1.521,2.028 .441-.742.759-1.607 2.028-1.521-.791,3.095.364-.008 1.522-.506zm52.227-3.55c1.174-.706 2.56-3.835 1.521-5.07-.057,1.873-.93,1.467-1.521.507-.518.666-.496,1.869-1.014,2.535 .996.152 1.006-.685 1.521-1.014 .644,1.546-1.732,2.582-.507,3.042zm-41.579-1.014c1.724.517 4.734-1.549 6.592-2.535-2.337-.83-5.142.93-6.592,2.535zm32.452,6.085c2.734-1.518 5.727-4.821 4.058-9.128-5.705.381-9.072,3.099-11.663,6.593 2.969-.176-1.836,3.336 0,2.028 1.436-.763 2.16-2.234 4.057-2.536 .752,1.655-2.851,1.466-1.015,2.536 .353-1.002 1.354-1.353 2.535-1.521-.228,1.463-2.183,1.198-2.535,2.535 2.133-.064 2.431-1.964 4.563-2.028 .202.872-.751,1.3 0,1.521zm-23.832-3.55c1.769,3.471-1.119,6.647-2.028,9.128 .357,1.502 1.511,2.207 1.014,4.563 2.56,1.158 5.115,2.323 4.563,6.592 1.109.75 2.729.988 3.55,2.027 .877,1.151 1.226,2.834 1.015,5.07 2.127.578 3.502,1.907 4.563,3.551v3.549c3.644,2.468 5.104,8.933 3.043,14.199 2.612.307 7.907-.802 9.127-3.551-1.276-4.979-5.802-6.706-5.578-13.184-5.873-7.967-6.733-24.091-6.084-35.496-3.371-1.24-6.651.003-10.144-1.521-.382,2.322-2.028,3.382-3.041,5.073zm-39.551-3.549c.815.366 2.825.756 3.55-1.014-1.375-.481-2.834,1.335-3.55,1.014zm27.382,2.536c-2.188,2.544-4.186,5.278-5.578,8.62 1.57,1.36 1.97-1.371 3.042,0 .01.759-1.884,2.074-.507,2.535 .735-.955.745-2.635 2.028-3.042 .691,1.753-2.278,2.39-.507,3.549 .312-1.377 1.006-2.374 2.028-3.042 .392,1.295-1.984,2.331-.507,3.042 2.375-2.766 5.927-10.337.001-11.662zm7.606,1.52c.597.08 1.439-.087 1.521.508-1.183.169-2.185.52-2.535,1.521 1.565.083 2.866-1.197 4.057,0-.392-1.666-1.08-2.675-1.014-3.549-.139,1.045-2.246.12-2.029,1.52zm47.665,13.185c5.12-1.993 8.525-9.193 4.562-14.705-4.209-.094-6.306,3.271-5.578,6.592-.262,1.454-3.223,2.828-2.026,4.057 .522-.699 2.01-3.007 2.535-2.028-1.224.975-2.015,2.381-3.043,3.549 2.551-.502 3.87-4.904 5.577-4.563-.846,2.534-3.203,3.558-4.563,5.578 3-1.058 4.062-4.054 6.086-6.085 .702,1.537 1.437-.127 2.027,1.521-1.514,2.37-3.453,4.321-5.577,6.084zm-14.706-10.142c2.394,2.369 1.84,5.084 1.015,8.62 2.48,1.407 3.371,4.404 3.043,8.62 5.616,2.728-.166,10.829 4.563,14.198 .553-3.166.89-6.549 2.535-8.62-1.942-2.031-1.13-5.479-.507-8.62-1.639-2.058-2.412-6.021-1.521-9.128-3.417-1.597-3.747-3.304-4.562-7.099-1.271-.421-1.991-1.39-3.551-1.521 .502,2.023-1.515,1.528-1.015,3.55zm-64.905-2.028c1.533-.157 3.944.563 4.057-1.015-1.273.418-4.366-.985-4.057,1.015zm-3.042,2.535c9.508.734.95-2.077 0,0zm0,2.028c1.809.387 3.482-1.571 4.057.507-.903.28-2.106.261-2.535,1.015 .758.086 1.871-.182 2.028.507-.615.771-5.238.125-4.057,1.015 .759.086 1.871-.182 2.028.507-.742,1.118-4.017-.298-4.057,1.521 5.932.81 12.459-2.445 9.127-7.605 .208,3.247-6.217-.135-6.591,2.533zm5.578,7.099c.481,4.539-1.125,6.989-4.057,8.113 1.337,3.676.176,8.405-3.042,9.128 2.422,4.161-1.14,8.263-3.042,11.155 .525,1.334.606,3.111.507,5.07-.319,2.048-2.487,2.246-3.042,4.058 1.639,2.837-.269,6.479-1.521,8.112 1.577.113.857,2.523 1.014,4.057-.361,1.837-1.769,2.626-2.028,4.564 .613,1.752 1.373,3.358 1.014,6.084-.12,1.57-1.411,1.97-2.028,3.043 .382,2.152 1.861,3.21 1.521,6.085-3.399,3.012.734,9.05-2.535,13.184 .958,1.239 1.938,2.457 2.535,4.058-3.36,5.147 3.621,9.681 0,14.705 .736,2.688 3.742,3.237 4.057,6.084 .326,2.943-1.837,4.144-2.535,7.101 2.57,2.389 5.427,6.772 3.042,11.155 1.704,1.351 3.555,4.062 2.028,7.099 2.597,1.499 5.166,5.024 3.549,9.128 4.127,1.794 5.358,5.572 5.071,10.648 5.079.33 6.403,4.414 7.606,8.619 4.481-.593 6.419,1.355 7.606,4.058 4.638-.243 7.159,1.631 8.62,4.563 4.156-1.646 8.41-.787 11.156,1.521 1.808-2.666 8.11-2.431 11.155-1.015 2.699-3.566 9.931-3.772 14.705-2.535 3.832-2.76 6.795-6.391 11.156-8.62 .162-3.048 1.767-4.656 4.057-5.578-.251-3.97 2.305-5.132 3.042-8.113-1.769-3.233.964-7.475-1.521-11.155 .907-.949 1.117-2.6 2.026-3.55-2.151-3.03-1.558-7.538 0-10.647-3.646-2.561-1.031-6.955-1.521-10.143-.526-3.428-3.965-6.373-2.535-11.154-3.029-3.584-1.396-7.857-2.535-11.664-.92-3.068-3.443-5.978-2.535-10.647-2.146-2.248-3.479-5.31-3.043-10.142-2.215-4.062-3.645-11.924-2.535-16.227-4.343,2.271-9.314.805-14.197,2.535 1.424,2.939 2.229,7.325 0,10.143 2.269,2.447 3.688,7.947 1.014,11.154 3.951,2.75.287,10.034 3.043,13.691-.135,2.062-.954,3.439-1.521,5.07 1.65,1.746 3.845,10.225 0,11.154-1.054-3.254.449-6.775-2.534-8.619-2.789.092-6.758,3.379-9.636,5.07-1.124,3.378 2.603,5.966 0,7.605-3.616.054-2.209-4.965-2.534-7.605-.432-3.479-1.861-6.781 0-9.128-2.271-2.824-.34-6.39-.509-9.634-.037-.719-.896-1.801-1.015-2.536-.399-2.503.012-4.748.508-7.099-1.704-2.526-2.451-7.838-1.016-10.648-1.314-2.861-1.678-7.209-1.014-10.648-3.456-.432-3.956-3.818-8.62-3.043-2.954-1.608-3.862-5.266-7.606-6.084-5.972-5.611-11.065-15.16-11.155-24.848-.016-1.66-1.087-3.552-1.014-5.07 .037-.779.801-1.929 1.014-3.041 .944-4.93.838-7.942 3.549-10.143-5.13-.109-5.148-5.331-8.113-7.606-.093,4.303-2.39,6.4-4.056,9.128zm56.285,1.015c1.733-1.346 3.927-3.694 5.069-4.057 .83-1.732.596-4.368-.506-5.578-2.602-.129-4.371,1.811-5.578,2.536-1.463.879-4.498,1.611-3.551,3.042 1.981-1.584-.526,1.04.508,1.014 .761-.591 1.24-1.464 2.535-1.521-.002,1.062-2.762,1.905-1.521,2.535 .38-1.241 1.515-.107.508.507 1.377.315 2.375-2.293 3.042-1.014-.646,1.551-2.902,1.491-3.55,3.042 .944.485 1.694-1.519 2.028,0-2.419,2.149-.488.661 1.016-.506zm-66.934-7.607c1.345-.008 2.986.281 3.042-1.014-1.344.008-2.985-.281-3.042,1.014zm87.217,6.592c1.25-2.129 3.687-3.075 4.562-5.577-1.787,1.263-4.86,3.915-4.562,5.577zm-51.722,5.578c1.273-.924.929-3.465 3.042-3.55-.667,1.361-1.361,2.695-2.028,4.058 .394.113 1,.015 1.014.508 3.657-1.922 6.487-8.562 2.028-11.663-5.842-.086-4.183,4.997-6.085,8.113 .997-.151 1.006.685 1.521,1.014 .594-.758.63-2.073 1.521-2.535-.001.509.411.604.507,1.015-.907.313-2.288,2.726-1.52,3.04zm50.708,4.564c1.479.581 4.739-1.242 6.592-2.535 3.432-2.393 5.896-6.499 4.563-11.662-2.948-.246-3.536,1.87-4.563,3.549-1.869,1.687-6.725,3.067-6.592,5.071 .141-.461 1.891-1.703 2.028-.508-.81.096-2.661,1.655-1.521,2.028 .761-.592 1.24-1.465 2.535-1.521-.002,1.061-2.763,1.904-1.521,2.535 1.329-.699 1.745-2.312 3.55-2.535-1.228,2.324-4.299,2.801-5.071,5.578zm-91.781-8.114c2.02.634 3.571-1.791 4.563-.507-.428,1.094-2.614.428-3.042,1.521 1.647.585 3.119-1.549 4.057,0-.458,1.062-2.862.181-3.042,1.521 1.399.176 3.561-1.456 4.564,0-1.41,1.47-3.866-.411-4.057,1.521 1.993.607 3.811-1.552 5.071,0-1.589,1.116-4.781.629-6.085,2.028 6-.435 13.507-1.454 12.17-7.605-4.255-.843-11.835-1.161-14.199,1.521zm75.554,8.114c4.945.09 7.021-10.871 0-10.142-1.579,2.14-4.15,3.286-5.577,5.578 2.2-.134-.176,1.577-.508,2.028 2.351-.435.53.798 1.521,1.015 .344-.561 1.687-2.631 2.028-1.521 .239,1.592-1.364,1.34-1.521,2.534 1.238.337 1.852-2.463 2.535-1.014 .189,1.254-3.168,1.5-1.521,2.535 .65-.913 4.493-4.041 3.043-1.013zm-45.636-7.099c-.509-.674-.479-1.887-1.521-2.028-.046,1.384.845,1.021 0,2.028 .75.264 1.278.75 2.028,1.014-.079-2.233 1.434-.144 2.028,0-.394-1.127-.293-2.749-1.521-3.042 .142,1.156-.122,1.906-1.014,2.028zm19.268,8.113c1.769-1.273 3.66-2.426 3.042-6.085-1.169-.521-1.635-1.745-3.549-1.521-2.134,1.171-6.29,6.407-5.578,7.1 .703-.201 1.437-2.879 2.028-1.521 .074.675-1.705,1.888-.507,2.028 1.371-1.356.088,1.32 1.014,1.521 .382-.841 1.204-3.813 2.028-2.536-.132,1.419-2.848,2.859-1.521,4.057 .909-1.965 1.985-3.762 3.55-5.07 .562,1.344-1.792,3.076-.507,2.027zm42.595,5.071c.086-.591.803-.552 1.521-.507-.162,1.189-1.568,1.135-2.027,2.027 2.754-.191.584.879 0,1.521 5.704-3.084 13.129-4.45 13.69-12.678-.396-.113-1.001-.014-1.015-.508-4.098,2.666-8.358,5.164-12.17,8.113 1.978.462-1.68,1.87.001,2.032zm-64.399-4.058c.787-2.254 2.889-3.195 3.55-5.576-1.221.469-2.456.925-3.55,1.521 3.15.536-1.775,3.309 0,4.055zm.507,2.029c1.242-2.315 4.92-4.872 4.563-7.099-1.961,1.338-4.65,7.063-4.563,7.099zm4.057.509c2.606-1.125 2.579-2.045 4.056-4.564-1.561.378-.974-1.393-2.535-1.014-.763,1.435-2.234,2.16-2.535,4.057 2.089.398.953-2.428 3.042-2.028-.587,1.271-2.02,1.697-2.028,3.549zm7.099-2.029c.029-.31.076-.601.507-.509 .309-.027.6-.074.507-.506-2.354.494-.688-3.031-3.042-2.535 .188,1.67 1.184,2.534 2.028,3.55zm-39.552-.509c.211-.537 2.781-1.176 2.536-.506-.056.957-1.676.352-1.521,1.521 1.794.446 2.613-1.304 3.042.507-.925.766-2.842.538-3.549,1.521 2.062-.019 6.133-1.234 3.549,1.014 4.484.232 8.433-2.114 6.592-6.592-3.515.55-11.19-.381-10.649,2.535zm76.061,6.594c2.131-1.758.688-.051 1.521,1.014 .343-.561 1.685-2.631 2.027-1.521-.148.312-1.262,1.953 0,2.029 2.047-2.681 5.208-5.229 4.057-9.635-3.356-2.259-9.06,3.025-9.635,5.07 .006-.512.889-.639 1.016,0-.7.049-1.979,1.979-1.016,2.027 3.717-1.434 2.192,1.131 2.03,1.016zm-22.816,1.013c1.957-2.269 3.857-4.592 3.549-9.127-4.478-1.379-6.953,3.026-8.113,6.592 2.413-.024 1.229,1.181 2.027,2.028 .795-.729.399-2.645 2.028-2.536-.053,1.828-3.03,3.363-1.521,5.071 .928-1.607 1.195-3.877 3.043-4.563 .078,1.029-2.267,3.534-1.013,2.535zm-17.243-3.549c1.484.133 1.558-1.146 3.042-1.015 .143-1.325-.185-2.182-1.521-2.027-.202,1.318-1.512,1.529-1.521,3.042zm6.085,3.549c.328-2.019-1.342-2.039-1.014-4.058-.597.08-1.439-.086-1.521.508 1.112.918.256,3.801 2.535,3.55zm15.212,6.593c1.55-2.57 6.457-5.238 3.55-9.128h-3.043c-1.478,2.916-4.378,4.41-5.07,8.113 2.617,1.466 2.234-2.013 3.55,0 1.178-.742-.99-1.606 1.015-1.521 .302.902-1.487,2.106-.002,2.536zm32.453,0c.625,1.641-1.643.387-1.016,2.027 7.881,1.297 13.867-3.256 14.198-11.155-4.546,1.2-8.089,3.404-11.663,5.577 .598.08 1.439-.087 1.521.508-1.08.948-3.229.827-4.058,2.028 2.843.46 4.824-2.593 6.593-1.521-.898,1.467-3.574,1.157-4.562,2.535 1.259.658 2.104-1.488 2.535,0-1.434.53-2.111.53-3.548.001zm-90.766,1.521c4.315-1.479 10.349-3.21 9.127-8.62-3.051-1.679-8.409.344-11.156,2.028 1.803-.859 2.619-.045 1.014,1.014 4.971-.605 1.822,3.201 4.057,3.55-.718.666-4.002,1.361-3.042,2.028zm82.145.507c.965-2.078 3.144-2.94 4.564-4.563-.898-.961-.473-3.246-1.521-4.057-3.235.145-4.467,2.295-6.086,4.057 1.369.476.91,2.287 2.029.508 .642,1.703-1.986,2.683-.508,3.55 .068-1.318 2.057-3.308 2.535-2.535-.61.447-2.194,2.468-1.013,3.04zm-43.1-6.592c-1.679,2.218-5.189,7.411-3.042,10.142 .026-2.341.369-4.363 2.028-5.07-.237,1.979-1.855,5.222-1.014,6.592 1.309-4.438 2.854-8.641 6.085-11.155 .027-.872-.391-1.3-1.014-1.521-.542,1.46-1.539,1.679-3.043,1.012zm5.071,3.55c.944-.484 1.695,1.52 2.028,0-1.119-.402-.659-2.384-2.028-2.536v2.536zm5.07,1.52c.979-1.037.343-3.322-.507-4.057-.979,1.039-.343,3.324.507,4.057zm12.677,6.593c.599-.754.438-2.266 2.028-2.028 .392,1.295-1.984,2.331-.508,3.042 1.658-2.369 4.918-6.646 1.521-9.635-3.926-.366-6.23,3.562-6.086,5.578 .122-.551.836-1.219 1.016-.508-.937.824-2.113,1.584-.508,2.535-.092-1.105.415-1.613 1.521-1.521-.148.312-1.262,1.952 0,2.028 .168-1.184.52-2.186 1.521-2.535 .393,1.341-1.872,3.929-.505,3.044zm-20.79,4.056c.022-2.683-.313-5.724 1.521-6.593 .696,3.105-1.64,6.093.507,7.605 .17-2.195-.579-5.312 1.014-6.084 .323,1.873-.657,5.051.507,6.084 2.505-2.35 2.525-8.215.507-11.154-4.735.11-5.994,7.849-4.056,10.142zm47.665-7.099c2.433,1.265 5.967-.038 7.604,1.015-1.1-.151-.986,1.597-1.521,2.028-1.817,1.471-4.378,1.31-7.606,2.027 2.588.012 3.576.493 3.551,2.028 6.345,1.688 9.48-3.058 10.142-8.621-3.328,1.23-9.013,1.68-12.17,1.523zm-90.767,0c-.751,3.062 3.205,2.355 3.55,5.578 2.413-.969 4.355-2.406 4.563-5.578-1.698-1.983-5.596-.256-8.113,0zm94.316,2.028c-1.207-.343-4.702-1.004-5.069-.507 1.242.307 4.259,1.447 5.069.507zm-44.622,4.564c2.138-.37 1.591,2.105 3.551.508 .198,3.958-.188,1.202 1.521.507-.407,1.759.755,1.949.507,3.55 2.363.444-.697-1.314 1.016-1.521 .869,2.811 2.387,4.857 3.549,6.085 1.327-5.05-5.918-17.531-10.144-9.129zm11.155,1.014c.308,2.578 1.341,7.096 3.043,6.592-.683-.541-2.011-3.008-1.015-3.55 .732.788.677,2.366 1.521,3.043 .062-4.088.932.843 2.536-1.521 .685,1.513 1.11,3.281 2.535,4.057-.938-2.268.456-1.309 1.521-.507-.541-3.517-3.363-4.75-4.057-8.113-1.596.58-1.232-.796-2.029-1.015-.434,1.255-3.529-.148-4.055,1.014zm18.255,6.592c2.678.239-1.18-1.365.507-1.521 1.36.19 2.245,3.463 3.55,2.028-.613.154-1.748-1.465-.507-1.521 .992,1.375 1.968,2.768 4.058,3.043-2.734-2.896-12.094-12.531-16.228-8.113 .586,4.32 3.685,8.818 6.593,9.127-2.222-1.068.064-1.438.508-1.521-1.115-1.101-3.978-3.101-2.535-5.071 1.332,1.34 2.363,4.418 2.535,1.521 .383.797 1.607.758 1.519,2.028zm8.113-5.071c-1.797.572-2.887-2.131-4.057-.508 1.469,1.482-2.219-.809-2.029.508 2.119-.112 4.14,3.859 6.593,4.057 2.438.196 5.237-.949 5.578-4.562-1.31-.241-4.188-1.521-4.563-1.015 .551.121 1.219.835.508,1.015-1.803-.246-4.549-2.188-5.578-1.521 1.108.747 2.729.987 3.548,2.026zm-86.709,5.578c2.02-.172 5.148-2.728 6.085-5.578-.395-.111-.59-.424-.507-1.014-4.284.537-6.877-.183-8.62,2.027 1.457-1.848 1.028,2.426 0,2.027 1.259.66 2.104-1.487 2.535,0-.451.298-2.892,1.065-1.521,1.521 1.496-1.792 2.103.732 2.028,1.017zm4.056,3.043c-1.193-2.908-5.149-.322-7.099.507 .759.086 1.872-.183 2.028.507-1.244.445-2.924.456-3.042,2.027 2.611,1.726 8.094,2.483 8.113-3.041zm86.71.507c1.424-.731 3.232.938 3.042-2.028-1.601.089-3.025.355-3.042,2.028zm-28.902,6.592c.951-1.099 4.701-2.033 3.043-4.058 .08,2.129-4.038,2.702-3.043,4.058zm-2.03,3.042c2.234-1.82 6.033-2.078 7.099-5.07-2.107,1.62-6.573,3.556-7.099,5.07zm32.453,5.07c.929-2.459 5.063-4.389 3.55-7.605-.529,2.86-4.744,4.71-3.55,7.605zm2.536-9.634c-.48,3.076-4.568,5.224-3.549,8.113 .933-2.621 4.629-5.163 3.549-8.113zm-100.401,4.564c2.563-.384 1.032,1.327.507,2.027 .704.201 1.522-.752 1.521,0-.002,2.316.264-.451 1.521,1.016 .168.195-.597.975-.507,1.014 .683.299 2.135.086 3.549.508 1.062-1.594 2.211-4.234 1.014-6.592-3.146.063-5.995.425-7.605,2.027zm66.427,5.07c.649-.254 2.414-1.9 2.535-1.014-.354,1.336-2.31,1.071-2.535,2.535 2.083-.113 2.156-2.238 4.563-2.027-1.319,2.397-4.363,3.074-6.086,5.069 4.502-2.428 10.511-3.35 10.648-10.142-.896-.455-1.48-1.225-2.535-1.521-1.824,2.062-5.16,2.614-6.592,5.07 .872.2 1.301-.753 1.521,0-.558.345-2.627,1.687-1.519,2.03zm34.988,7.607c2.389-3.353 9.379-8.473 3.549-12.678-2.306,2.259-3.448,5.679-5.069,8.621 .618.058 1.199.151 1.014,1.014 1.892.539.803-1.901 2.535-1.521-.454,1.429-3.217,3.177-2.029,4.564zm-100.401,2.535c3.576-.683 8.766-3.312 5.578-7.606-3.068.65-6.046,1.393-8.113,3.043 1.259.66 2.104-1.487 2.536,0 .059.52-2.188,1.025-.507,1.521-.363-.822 2.391-.822 2.028,0-.569.107-.79.562-1.014,1.016 .944.483 1.695-1.52 2.028,0 .016,1.535-2.552.489-2.536,2.026zm67.948,2.536c3.604-1.393 10.162-3.479 7.101-9.635-3.441-1.014-8.148,3.177-8.621,5.07 1.42-1.526.834,1.129 0,1.521 1.582.357 2.182-2.836 3.549-1.016-.228,1.465-2.182,1.199-2.535,2.535 .619.059 1.201.152 1.015,1.016-.541-.021-1.29.24-.509.509zm32.96,0c1.007-.007.645-1.385 2.027-1.014-.264.75-.75,1.276-1.014,2.026 2.041.351 1.244-2.135 3.041-2.026 .42,1.804-3.142,2.221-1.521,3.549 1.884-3.355 6.854-3.624 5.577-10.143-.75-.264-1.277-.75-2.027-1.014-2.055,2.346-6.382,5.104-6.592,7.605 2.105-3.029-.309,2.876.509,1.017zm-103.443,3.549c.139-.461 1.889-1.703 2.028-.508-.049,1.304-1.979.727-2.028,2.027 1.604.084 1.695-1.348 3.55-1.014-.46,1.313-.256,1.885 0,3.551 4.072-.487 6.556-6.885 3.042-9.129-2.228-.029-3.296,1.1-4.056,2.535-.724-1.217-4.761-.08-3.042,1.016 .008-.664 1.406-.646 1.521,0-.452.15-2.221,1.373-1.015,1.522zm70.483,5.578c.337,2.656 5.709-4.781 5.069-1.521 2.772-.582 4.593-4.692 2.535-7.1-4.067-.012-5.683,2.432-8.113,4.057 2.234-.078.146,1.435 0,2.028 1.271-.087 1.232,1.136 2.029,1.521-.206.639-.654,1.036-1.52,1.015zm38.03,3.549c3.145-2.227 7.179-5.826 5.07-11.663-5.576.175-7.234,6.96-8.621,9.636 .525-.698 2.012-3.006 2.535-2.028 .201.872-.752,1.3 0,1.521 .496-1.681 1.004.566 1.521.508 .344-.562 1.686-2.631 2.029-1.521-.818,1.207-1.82,2.232-2.534,3.547zm-33.466,5.072c3.064-.92 6.153-5.153 3.551-8.621-3.361.865-5.229,3.225-8.113,4.564 1.156.695 1.906-1.309 2.027,0-.498.725-3.389,1.627-2.027,2.535 .759-.305 2.115-2.553 2.535-1.521-.426.589-.668,1.359-.508,2.535 1.691.002 1.731-1.649 3.551-1.521 .144.894-2.39,1.57-1.016,2.029zm-72.005-2.537c-.162,1.189-1.569,1.136-2.028,2.027 .597.08 1.439-.086 1.521.509-.512.006-.638.889 0,1.014 2.621-2.28 7.354-2.448 6.592-8.112-2.709-2.648-9.357.713-9.127,2.535 .139-.461 1.889-1.703 2.028-.508-.056.958-1.676.352-1.521,1.521 .903.303 2.105-1.486 2.535,0-1.237.63-2.262,1.957 0,1.014zm106.486,7.607c.8-1.229 1.813-2.242 3.042-3.043 .547,1.295-2.184,1.774-.507,2.535 2.478-2.059 6.491-9.062 2.534-12.677-2.135,3.446-7.521,6.332-8.112,9.634 .483-.738 1.824-3.192 2.535-2.027-.819,1.209-1.82,2.234-2.535,3.55 2.138.421 2.254-3.797 3.55-2.535 .202,1.588-2.562,2.8-1.521,3.55 .047-.703 1.295-.533 1.016.508-.282-.004-.578.408-.002.505zm-107.5-.507c.085-.591.802-.551 1.521-.507-.149,1.033-1.372.994-1.521,2.027 .949-.026 1.074.392.507,1.015 .958.113 1.119-.57 2.028-.507 .217,1.962.555,1.804-.507,3.042 4.535.318 7.279-1.54 6.592-7.605-2.819-1.86-8.178.861-8.62,2.535zm109.526,13.184c-1.225-1.052-3.239.562-2.026,1.521 .108-.35.019-1.056.507-1.015 5.114.433 4.581-1.418 8.62-5.07-.948-2.6-.069-7.028-1.521-9.127-3.074.987-6.447,4.36-6.592,6.593 .121-.552.834-1.219 1.014-.509-.566,1.97-2.475,2.597-3.043,4.564 1.777.713 1.598-3.072 2.537-1.521-.229,1.158-2.803,2.562-1.521,3.55 1.295-1.07 1.591-3.143 3.549-3.55-.066,1.96-2.057,2-2.535,3.55 2.191-.022 2.575-4.502 4.564-3.043-1.155,1.382-2.247,2.825-3.553,4.057zm-104.455,2.028c.271-1.194 2.399-.311 1.014.506 2.075-1.018 4.787-2.405 5.071-4.057 1.54-8.945-12.251-2.14-12.17,1.521 1.432-.782 4.01-3.065 5.071-2.535-1.513,1.021-2.502,2.568-4.057,3.55-.126,1.378 4.723-3.249 5.578-2.536-.222.561-2.239,2.631-1.014,1.521 .676.076 1.531-2.062 2.028-.508 .421,1.486-3.023,1.648-1.521,2.538zm110.541,7.099c2.42-1.245 4.527-6.667 2.027-9.634-3.545,1.019-5.48,3.646-7.604,6.084 2.817-.133-1.06,1.969.507,2.029 1.268-.576 1.341,1.867 3.042-.509-.001.509.411.604.508,1.015-.551.121-1.218.836-.508,1.015 .345-1.004 1.687-2.229 2.028-.507-.28-.002-.575.41 0,.507zm-108.513,7.607c5.917-1.062 8.053-11.146 1.521-11.662-.519-.043-1.188.967-2.535,1.521-2.867,1.179-3.816,1.61-5.071,3.55 2.224.533 1.666-1.715 3.549-1.521 .076.677-2.062,1.531-.507,2.029 .459-.291 1.867-2.092 2.028-1.015 .145.894-2.388,1.569-1.014,2.028 .056-.403 1.676-1.537 1.521-.508 .076.676-2.062,1.531-.507,2.027 .683-.838 1.296-1.746 2.535-2.027 .167,2.215-3.932,2.803-2.535,4.563 1.078-1.458 2.218-2.854 4.563-3.043-.58,1.633-3.87,3.205-3.548,4.058zm103.95,2.534c1.017-.843 1.88-1.84 3.55-2.028-.699,1.836-3.205,1.865-4.057,3.551 1.553-.368 1.491.875 3.042.507 .584-1.756 1.791-4.867 4.563-2.535 2.051-.979 2.748-5.228 1.015-7.099-4.646.428-8.548,4.291-9.636,6.592 .591-.961 3.146-2.562 3.552-2.028-.158,1.227-3.121,2.24-2.029,3.04zm-100.907,6.085c1.664-2.392 4.439-3.674 4.563-7.604-3.159-2.468-9.504,1.497-9.127,4.057 .351-1.002 1.353-1.353 2.536-1.521-.319,1.396-3.471,2.58-2.536,3.55 .668-1.023 1.665-1.716 3.042-2.028-.436,1.126.229,1.373.507,2.535 2.166-1.67.421.853 1.015,1.011zm98.373,5.071c.948-.026 1.073.39.508,1.015 4.685-1.852 13.002-1.813 11.154-8.621-.6-.246-1.148-.541-1.521-1.014-3.854.54-6.591,2.198-9.128,4.057 .902.304 2.105-1.485 2.535,0-.959,1.068-2.918,1.139-3.549,2.535 2.008.293 3.686-2.367 4.563-1.521-.89,1.812-3.594,1.816-4.562,3.549zm-94.317,5.071c2.083-2.481 4.103-5.024 3.549-10.143-4.051-3.14-8.762,3.452-9.127,5.578 .752-1.99.789-.098 1.521.508 .107-.568.562-.789 1.014-1.015 .696,1.155-1.307,1.906 0,2.028 .149-.451 1.372-2.221 1.521-1.016-.604,1.491.524,4.072 1.521,2.028 .413,1.153-.946,3.398.001,2.032zm95.837.507c.729-.567 1.237-.546 1.521.508-1.197,1.494-4.482.44-6.086,2.535 2.655.264 6.098-2.858 7.607-.507-.045.703-3.648.31-2.029,1.014 2.596-.396 3.684.711 6.086.507 1.379-1.649 2.844-5.13 1.014-7.099-3.428.121-7.143-.043-9.127,1.521 3.156-.41-.083,1.486 1.014,1.521zm-95.837,2.536c.441,1.496.759-1.178 2.028-.508-.355,1.604-.43,3.469 0,4.563 .752-1.991.789-.098 1.521.507 .541-.474.158-1.871 1.521-1.521-.292.308-1.187,2.405 0,2.534 .069-.943.333-1.693 1.014-2.027 .277.736-.593,2.621.507,2.535 1.558-2.363 1.884-6.196 1.014-9.635-.896-.455-1.48-1.225-2.535-1.521-1.709,1.672-3.807,2.956-5.07,5.073zm93.302,5.071c-.737.276-2.621-.594-2.535.506 .751.896 2.62-.951 2.535,1.521-.959.104-5.01-.342-3.55.507 2.081-.053 4.14-.083 5.07,1.015-1.58,1.326-3.215-.541-5.578,0-.119,2.058 2.218.652 3.55,1.015 3.26.886 6.168,2.812 8.62-.507v-3.551c-3.297-1.705-7.336-2.543-11.155-1.521 1.91.577 2.31-.485 3.043,1.015zm-84.682,10.648c.356-2.18 1.018-4.053 3.549-4.057 .14.889-1.428,2.529 0,3.043 .433-2.221 1.441-.928 3.55-1.016 3.026-6.229-7.588-11.533-7.099-4.057-1.595-.581-1.232.797-2.028,1.016 1.914,1.436-.673,4.555 2.028,2.534 .66,1.26-1.487,2.105 0,2.537zm84.682-1.521c-1.442-1.093-3.983-1.086-5.578-2.028 .74,2.472 5.16,1.264 5.578,4.057-2.228.181-3.89-2.847-5.578-1.521 1.453.912 3.396,1.336 4.563,2.535-1.403,1.432-3.704-2.482-5.07-1.016 2.863,1.268 7.213,4.796 10.143,1.521 .194-5.439-5.838-7.342-10.143-6.592 2.107.935 5.902.182 6.085,3.044zm-76.568,10.141c-.195-1.978 1.385-3.155 2.028-1.521 .691-1.677.374-4.359 3.042-4.058 .653,3.035-1.395,6.021-.507,7.604 1.445-2.948 1.35-7.438 3.042-10.142-3.434-6.241-9.439.957-9.634,4.058-1.542.317-4.368-.648-5.071.508 2.767.123 5.793,1.843 7.099.507 .55,1.3-1.54,2.419.001,3.044zm75.553-2.536c-.809-2.749-5.063-4.729-7.1-4.562 2.566,1.321 4.239,3.537 7.1,4.562zm-58.313,1.521c-1.19-3.062-3.589-6.957-8.113-5.07-1.533,3.354-1.469,6.093-2.536,9.128 2.535-.169.104-5.306 3.042-5.071-.412,2.645 1.477.094 2.028,2.028 .873-2.528 2.28,1.118 3.549-1.015-.105,1.457.129,2.576 1.014,3.043-.54-1.895 1.261-1.445 1.016-3.043zm50.707,2.536c-3.032-3.22-6.217-6.289-11.155-7.605 1.666,3.406 3.567,6.574 6.594,8.621-.814-2.735-3.351-3.75-4.057-6.594 1.581.467 2.375,4.36 4.057,3.043-.615.156-1.75-1.465-.508-1.521 1.393,1.322 3.464,4.63 5.069,4.056zm4.563-4.563c-1.43-.452-3.176-3.219-4.563-2.028 .552.121 1.218.835.509,1.015-1.857.306-2.357-3.351-4.058-1.521 2.028,1.262.34,1.034-.509,1.521 1.875,1.515 5.289,4.166 7.101,4.057-1.635-1.407-3.685-2.4-5.069-4.057 1.513.009 1.724,1.317 3.041,1.521 .048-2.865 3.489.816 3.548-.508zm-24.845,6.591c-.396-.353-1.129-2.829 0-3.042 1.379,1.833 1.641,4.783 3.551,6.084-1.976-4.302-1.935-7.509-4.058-11.662-3.646-.34-6.772,3.77-4.057,6.592 .079-.597-.089-1.438.507-1.521 .854.694 1.173,4.535 2.027,3.55-.534-.527-1.047-3.621 0-4.057 .605,1.112 1.08,4.971 2.03,4.056zm9.127.507c-3.008-1.556-2.507-6.619-5.07-8.619 .629,3.601 2.188,8.959 5.07,8.619zm5.071-1.013c-2.55-1.325-4.116-7.281-6.086-7.101 1.797,2.268 3.156,7.655 6.086,7.101zm-8.621.506c-1.295-1.545-2.122-7.75-3.549-7.099 1.015,2.535 1.067,6.032 3.549,7.099zm5.578,1.015c-1.622-2.771-2.664-6.125-5.069-8.113 .989,3.404 2.425,6.361 5.069,8.113zm-38.03-6.084c-.977-.939-.4-.931-2.028-.509 1.039,3.423 1.052,6.724 2.028,9.128 .724-2.939-1.418-5.658 0-7.605 1.703,1.519 1.002,8.111 2.028,8.619 .812-3.065-1.526-7.041.507-8.112-.611,1.019 2.102,2.284 2.536,3.043 1.526,2.665-.917-.074 1.521,0 .981.878-.435,4.153 1.521,4.058-.255-3.972-1.434-7.02-3.042-9.636-1.677.426-5.298-2.188-5.071,1.014zm21.297,7.605c-1.828-2.439-1.984-8.176-5.576-9.127-4.131-1.096-8.486,1.957-5.578,6.592 1.242-.266 2.297-.684 4.057-1.521 .395,1.127 1.064,1.979 1.014,3.551 1.515-.727 1.726.414 3.043-.508 .75,1.447 1.037,3.356 2.027,4.563-.3-1.821.589-2.454 1.013-3.55zm-33.467-1.014c.147-1.403 2.077-3.631.507-5.071 .486,2.037-1.667,4.041-.507,5.071z"/>
 <path d="m116.96 185.08c0.502 2.371-4.071 4.034-6.086 5.577 1.58-2.307 4.254-3.522 6.086-5.577z"/>
</svg>
