<?xml version="1.0" encoding="UTF-8"?>
<svg enable-background="new 0 0 75.193 329.859" viewBox="0 0 75.193 329.859" xmlns="http://www.w3.org/2000/svg">
 <path d="m33.472.005c5.046,2.444 2.556,8.836 3.126,13.288 .562,4.401 2.57,8.896 3.125,13.287 2.64,20.858 2.849,43.888 3.908,67.216 .256,5.619 1.83,11.514 0,17.195 .275,2.591 4.506,1.226 7.035,1.562 12.937,6.691 22.357,16.943 24.229,32.044 2.688,21.707-13.479,41.578-21.885,55.492 7.449,10.241 16.132,24.551 11.723,39.86-2.729,9.482-11.803,14.709-18.758,20.32-6.117-.907-8.869,1.553-14.066,1.562-3.194,22.225 1.6,44.729 3.126,67.998-4.606.437-4.146-4.192-7.816-4.689-1.445.116-.479,2.646-1.563,3.126-1.542-3.179-3.303-7.997-3.907-12.506-2.273-16.923-2.6-39.521 0-53.929-9.268-4.91-15.449-10.188-19.54-21.884-1.824-5.22-3.496-12.789-.782-20.321 .956-2.65 3.608-4.945 4.69-7.814 1.075-2.854 1.268-6.461 2.345-9.38 2.665-7.216 7.86-16.8 10.16-23.447-3.931-7.555-10.987-16.246-12.504-26.572-3.855-26.271 13.174-41.938 34.389-42.205 .475-4.121-1.104-6.192-3.907-7.035-2.629-.285-1.303,3.387-2.345,4.688-1.422-26.844-1.76-54.67-5.471-82.064-.737-5.438-3.804-10.756-1.563-15.631-1.438-2.786-4.057-5.813-.782-8.599 3.601-2.41.099,1.839 3.908,1.563 3.194-.484.446-3.264 3.125-3.125zm5.47,132.087c-.422-3.486-.897-6.918-5.47-6.253-.822,4.519-2.358,13.139.781,14.85-6.36-.096-5.103,9.528-.781,10.162 3.59-1.358.473-9.426 4.688-10.162-.66-3.768-1.013-7.845-3.907-9.378 1.842-.018 2.301,1.345 4.689.781zm-3.125-108.639c-1.484-6.045-2.234-9.421-2.345-15.631-1.506-1.1-3.146-2.065-5.472-2.345 2.796,6.61-1.518,17.024 7.817,17.976zm-4.69,7.816c1.835.249 2.933,1.234 5.472.781 .499-3.887-2.375-4.399-2.345-7.816h-3.126c-1.85,1.942-.009,4.6-.001,7.035zm5.472,11.723c1.227-2.854-.433-8.708-4.689-8.597-1.085,2.713-.027,9.166 4.689,8.597zm.781,9.38c1.031-1.604-.379-5.986-1.563-7.816h-3.126c-.231,4.398-.451,8.787 4.689,7.816zm.78,11.722c1.603-3.005.328-8.926-3.125-9.378h-1.563c-.168,4.857-.18,9.559 4.688,9.378zm2.345,10.944c-1.285-3.666-.36-9.542-4.688-10.162-3.243,3.239-1.635,11.662 4.688,10.162zm0,10.16c.172-2.517-1.383-3.308-.782-6.254-1.648-.692-2.31-2.378-4.688-2.343-1.884,4.795.723,8.248 5.47,8.597zm-1.563,7.815c1.077-1.007.773-3.395.781-5.471-1.841.018-2.3-1.347-4.688-.782-.593,3.98.572,6.202 3.907,6.253zm-3.125,8.597c1.835.25 2.934,1.235 5.471.782-.991-3.697-.909-8.467-5.471-8.597-1.526,1.755-.681,5.879 0,7.815zm-3.127,17.976c3.737-1.733 9.89-1.052 10.16-6.251-5.344-1.386-10.598-.231-10.16,6.251zm-9.379,3.908c4.783-1.21 5.438-6.547 7.816-10.16-5.208.785-8.226,3.758-7.816,10.16zm18.757-3.908c2.7,1.017 10.256,1.223 11.726-3.125-4.127-2.647-10.709-1.629-11.726,3.125zm-28.135,7.816c1.608.215.735,2.911 2.345,3.126 1.378-2.711 6.954-8.95 3.125-11.725-1.746,2.946-5.264,4.115-5.47,8.599zm36.734-3.126c3.716,1.969 6.436,4.683 10.94,1.563-1.986-1.138-2.169-4.083-3.127-6.253-4.42-.253-6.563,1.771-7.813,4.69zm-8.599.781c-1.144,16.161-4.901,36.179-10.94,50.021 5.614,5.066 9.443,11.918 15.631,16.413 3.406-10.911 16-24.107 16.413-39.079 .47-17.07-7.71-25.113-20.321-29.701-.044,1-1.002,1.083-.783,2.346zm-17.976,39.079c2.582-12.815 7.957-26.921 7.035-40.642-16.544,3.004-18.222,30.623-7.035,40.642zm-14.068-25.792c-3.897,2.421-2.506,9.905 2.346,10.161 1.645-2.842-1.932-8.493 2.345-9.379-1.178-3.251-.333-8.525-3.126-10.16-2.092,1.812-3.195,6.112-1.565,9.378zm59.4,0c-1.938-4.577-3.11-9.915-10.943-8.597 1.403,5.11 4.556,8.47 10.943,8.597zm.782,10.161c1.292-3.152-1.547-8.136-6.253-7.816-.668,5.357 1.898,7.48 6.253,7.816zm-53.929,9.378c-1.224-4.247-3.585-7.356-7.815-8.596-.68,5.796 4.136,9.703 7.815,8.596zm48.457-7.033v5.471c1.976,1.151 3.491,2.761 6.254,3.125-2.799-4.521 1.676-8.367-2.346-10.159-.115,1.708-1.969,1.678-3.908,1.563zm-32.044,9.378c2.552-4.645.941-8.515-3.126-10.16-2.984,3.29-1.418,9.875 3.126,10.16zm-8.598,7.816c-.074-1.229.104-2.709-1.563-2.345 .754,4.708-2.268,11.793 4.69,14.067 2.138-4.841 1.619-10.224-3.127-11.722zm6.253,1.564c1.455-3.59 1.208-10-3.126-10.162-2.467,3.138-3.731,10.722 3.126,10.162zm32.044-2.346c-3.381.526-3.518,4.299-3.908,7.816 2.033.312 2.358,2.332 4.69,2.344 .834-5.246 2.719-9.116 5.471-14.068-1.467-1.398-2.939-2.791-4.688-3.908-1.386,2.743-2.556,4.493-1.565,7.816zm-42.987,0c.765-3.89-1.597-4.654-2.343-7.034-3.119.431-2.354.431-5.471,0 .407,4.517 3.619,8.708 7.814,7.034zm0,8.599c2.706-1.943 1.168-6.858-2.343-7.034h-1.562c.422,3.223 1.999,5.293 3.905,7.034zm36.736,10.159c4.106-1.145 5.356-8.828 0-9.379-.531,2.839-4.917,7.992 0,9.379zm-37.517-.78c1.65.694 2.312,2.38 4.689,2.345 1.71-4.14 1.541-7.909-1.562-10.161-1.831,1.816-2.566,4.728-3.127,7.816zm8.598.78c3.06.281 6.028,5.59 8.598,1.563 .624,1.722 1.568,3.12 3.906,3.127 .165-5.771-9.755-4.282-7.813-9.38-3.422-.292-3.759,2.496-4.691,4.69zm21.103,7.816c2.391-.567 2.299,1.348 4.689.782-.833-3.646 2.041-6.165 0-8.6-.173-.607-.655-.909-1.562-.781-.992,2.919-3.86,3.961-3.127,8.599zm-34.389.783c1.801.802 2.52,2.688 5.47,2.343 .808-1.988 2.441-10.485-1.562-10.159-1.297,2.611-2.613,5.202-3.908,7.816zm1.563,50.019c-1.141,1.479-3.745,3.841-1.563,6.253 3.272.966 4.301-5.506 9.378-1.562 1.895-19.729 11.43-31.819 16.413-48.459-4.56-4.036-6.154-11.04-12.504-13.286-7.429,15.031-21.628,36.765-11.724,57.054zm32.044-43.768c.717-4.239-7.583-8.263-10.941-8.597-.172,3.725 4.216,9.206 10.941,8.597zm-32.044,3.908c-.567-2.391 1.348-2.299.781-4.688-.707-1.378-1.749-2.42-3.126-3.127-2.423,1.703-2.278,8.625 2.345,7.815zm28.135-1.564c.555,4.317 6.621,6.679 10.161,5.472-.808-4.063-6.449-6.851-10.161-5.472zm-32.825,10.162c4.225.038 2.749-9.196-1.562-7.816-.778,2.169-1.934,7.749 1.562,7.816zm47.675,3.907c-1.023-4.968-6.509-5.476-10.159-7.814 .628,4.854 5.462,9.629 10.159,7.814zm-21.882.781c-4.362.699-5.411,9.877 0,10.161 1.854-3.096.172-9.726 4.688-10.161v-7.813c-4.703-.537-4.884,3.451-4.688,7.813zm-2.346,33.609c7.141-.155 9.954-4.636 14.85-7.035 6.261-9.384 4.716-25.214-2.345-32.825-4.513,12.94-10.861,24.049-12.505,39.86zm-29.7-31.263c1.557.788 2.738,1.952 3.908,3.126 1.133-3.142 3-9.39-1.563-10.159-1.273,1.852-1.733,4.52-2.345,7.033zm55.491,18.757c.694-2.737-1.405-10.214-1.563-11.724 2.513-.688 1.073,2.577 3.127,2.346-1.845-4.669-1.426-11.601-8.597-10.942 4.187,6.095-.314,20.191 7.033,20.32zm-51.583-7.034c.046-4.735-1.181-8.199-4.689-9.379-1.66,3.52-.768,10.451 4.689,9.379zm25.792,5.471c.219-2.646 1.244-4.486.782-7.814-1.384-.703-2.283-1.889-3.908-2.346-2.359,2.665-2.769,11.225 3.126,10.16zm-25.792,3.908c1.575-3.907-3.404-7.355-5.471-10.16-.341,5.552.628,9.792 5.471,10.16zm17.976,5.471c-4.02,2.504-2.543,11.412 3.127,10.941 1.008-2.869.126-9.809-3.127-10.941zm4.69.782c-.153-3.02-.029-5.76.782-7.815-2.934.588-1.704-2.986-3.908-3.127-1.98,3.583-2.411,10.824 3.126,10.942zm18.757,0c-1.487-1.464-1.964-.087-3.908,0-.104,2.513-2.405,5.181-.781,7.033 3.657-1.031 3.216-6.164 8.599-5.47 1.159-4.194 4.82-7.459.782-10.943-2.118,2.573-2.26,7.123-4.692,9.38zm-32.043,8.597c3.934.549 5.152-1.62 4.688-5.471-3.294-.066-6.146,3.25-4.688,5.471zm21.101-4.689c-.761,1.374-3.578,4.687-1.562,6.251 3.003-1.163 6.063-2.271 5.47-7.033-1.883-.318-1.699,1.428-3.908.782zm-14.068,16.413c-4.537,2.976-3.37,11.9 3.126,11.723-.24-4.551-2.72-9.721.782-13.286-.93-2.979-2.078-5.737-3.127-8.599h-2.345c-1.593,3.384-.711,8.344 1.564,10.162zm-1.563,21.884c1.945-.121 2.42,1.229 3.908,1.563 2.214-4.309-.574-9.651-4.69-10.161-.078,3.205-.154,6.407.782,8.598zm.781,11.723c1.841-.018 2.302,1.348 4.69.782-.659-4.031-1.208-8.17-4.69-9.378h-1.563c-.237,3.623.008,6.765 1.563,8.596zm5.472,12.505c.522-4.432-1.757-6.059-2.345-9.379h-3.126c-.913,3.134-.814,9.595 5.471,9.379zm2.345,10.161c-.745-4.466-3.639-6.781-7.035-8.598-1.221,3.555 1.573,9.19 7.035,8.598zm-3.909-7.034h1.562c1.215-1.924-2.654-2.3-2.345-.782 .478.044.928.117.783.782z"/>
</svg>
