<?xml version="1.0" encoding="UTF-8"?>
<svg viewBox="0 0 1052.3622 744.09448" xmlns="http://www.w3.org/2000/svg">
 <path d="m347.28 693.94c77.932-2.3616-4.7922-2.0437-34.595 3.4629s-176.58 12.115-87.171 11.013 640.44 11.013 608.34-1.1013-123.8-12.115-123.8-12.115l-362.78-1.2602z" fill="#000065" fill-opacity=".41081" fill-rule="evenodd"/>
 <g transform="matrix(1.2324 0 0 1.2324 16.111 -7.0192)">
  <path d="m496.97 276.53 96.854-105.2s50.097 113.55 68.466 172 38.407 126.91 38.407 126.91l-208.74 43.417 5.0097-237.12z" fill="#fffff9" fill-rule="evenodd" stroke="#000" stroke-width="2.56"/>
  <path d="m497.63 67.789-13.359 485.94" fill="none" stroke="#000" stroke-width="6.75"/>
  <path d="m362.37 109.54-23.378 437.51" fill="none" stroke="#000" stroke-width="6.875"/>
  <path d="m208.74 513.65s50.097-76.815 78.485-123.57 50.097-86.834 50.097-86.834v207.07s-40.077 1.6699-70.135 5.0097-58.446-1.6699-58.446-1.6699z" fill="#fffff9" fill-rule="evenodd" stroke="#000" stroke-width="2.56"/>
  <path d="m214.9 530.37-108.63-17.712" fill="none" stroke="#000" stroke-width="7"/>
  <path d="m198 528.09s186 12 246 10 114-6 138-4 112-18 92-6 28 10-38 16-162 14-210 10-142-12-172-16-56-10-56-10z" fill="#253b59" fill-rule="evenodd" stroke="#000" stroke-width="2.75"/>
  <path d="m194 526.09 44 50s132-4 202 0 162-2 174-4 54-22 60-26 4-18 4-18-10 10-64 14-156 10-202 6-112-6-146-12-72-10-72-10z" fill="#d7e7ff" fill-rule="evenodd" stroke="#000" stroke-width="2.75"/>
  <path d="m666.39 545.95s-20.712 13.021-36.747 20.345-31.402 8.1379-187.74 9.7654c-29.397 0-28.729-1.6276-39.419-2.4414 22.716-0.81379 138.3-1e-5 213.8-11.393 37.415-9.7654 50.109-16.276 50.109-16.276z" fill-opacity=".2973" fill-rule="evenodd"/>
  <path d="m207 535.91 31.881 36.605 63.763-1.1808s-25.977 5.904-56.678-9.4463-38.966-25.977-38.966-25.977z" fill-opacity=".2" fill-rule="evenodd"/>
  <path d="m327.3 306.58s-85.164 83.495-113.55 106.87-101.86 95.184-101.86 95.184 65.126-15.029 98.524-18.369 50.097-6.6796 50.097-6.6796l66.796-177.01z" fill="#fffff9" fill-rule="evenodd" stroke="#000" stroke-width="2.56"/>
  <path d="m203.73 371.71s55.106-88.504 81.825-126.91 66.796-101.86 66.796-101.86-13.359 61.786-16.699 93.514-3.3398 76.815-3.3398 76.815-31.728 6.6796-63.456 20.039-65.126 38.407-65.126 38.407z" fill="#fffff9" fill-rule="evenodd" stroke="#000" stroke-width="2.56"/>
  <path d="m357.36 319.94 101.86-93.514s10.019 43.417 13.359 81.825 13.359 195.38 13.359 195.38l-143.61 8.3494 15.029-192.04z" fill="#fafaf3" fill-rule="evenodd" stroke="#000" stroke-width="2.56"/>
  <path d="m344.79 510.3 14.169-188.93 99.186-92.102 14.169 82.655 14.17 191.29-141.69 7.0847z" fill-opacity=".04324" fill-rule="evenodd"/>
  <path d="m365.71 147.94s23.378 46.757 21.709 56.776-5.0097 60.116-13.359 86.834-18.369 35.068-18.369 35.068l10.019-178.68z" fill="#fffff9" fill-rule="evenodd" stroke="#000" stroke-width="2.56"/>
  <path d="m500.97 91.167s23.378 50.097 43.417 61.786 38.407 21.709 38.407 21.709l-60.116 115.22s-16.699-53.436-20.039-76.815-3.3398-40.077-3.3398-40.077l1.6699-81.825z" fill="#fffff9" fill-rule="evenodd" stroke="#000" stroke-width="2.56"/>
  <path d="m106.87 508.64c3.3398-11.689 98.524-138.6 98.524-138.6" fill="none" stroke="#000"/>
  <path d="m365.71 137.92 123.57 71.805-106.87 23.378" fill="none" stroke="#000"/>
  <path d="m385.74 211.4 108.54-133.59" fill="none" stroke="#000"/>
  <path d="m184.03 490.32 73.932-5.1802 65.401-155.41s-48.34 108.79-71.088 126.92-68.245 33.672-68.245 33.672z" fill-opacity=".08649" fill-rule="evenodd"/>
  <path d="m231.44 515.02 101.55-4.7232 2.3616-177.12s-14.169 85.017-30.701 113.36-73.209 68.486-73.209 68.486z" fill-opacity=".08649" fill-rule="evenodd"/>
  <path d="m276.31 328.46s9.4463-7.0847 28.339-11.808 25.977-4.7232 25.977-4.7232 0-40.147 2.3616-70.847 4.7232-37.785 4.7232-37.785-18.893 30.701-30.701 63.763-30.701 61.401-30.701 61.401z" fill-opacity=".08649" fill-rule="evenodd"/>
  <path d="m493.57 512.66 205.46-44.87-33.062-115.72-70.847-177.12s-35.424 170.03-54.316 219.63-47.232 118.08-47.232 118.08z" fill-opacity=".08649" fill-rule="evenodd"/>
  <path d="m519.55 285.95s9.4463-28.339 9.4463-68.486-16.531-61.401 2.3616-56.678 49.593 16.531 49.593 16.531l-61.401 108.63z" fill-opacity=".08649" fill-rule="evenodd"/>
  <path d="m236.16 408.75s33.062-30.701 51.955-40.147 16.531-9.4463 16.531-9.4463l-18.893 49.593s-9.4463-7.0848-25.977-4.7232-23.616 4.7232-23.616 4.7232z" fill-opacity=".28108" fill-rule="evenodd"/>
  <path d="m238.52 408.75-127.53 101.55" fill="none" stroke="#000" stroke-opacity=".48649"/>
  <path d="m212.54 510.3s82.655-82.655 99.186-118.08 23.616-87.379 23.616-87.379v203.1l-92.102 7.0848-30.701-4.7232z" fill-opacity=".16216" fill-rule="evenodd"/>
  <path d="m342.43 507.94s25.977-16.531 30.701-33.062-16.531-151.14-16.531-151.14 14.169 68.486 25.977 82.655 23.616-7.0848 23.616-7.0848l14.169-47.232s-2.3616-37.785-9.4463-59.04-54.316 30.701-54.316 30.701l-14.169 184.2z" fill="#fffff9" fill-opacity=".75676" fill-rule="evenodd"/>
  <path d="m356.6 321.37 80.294-73.209s7.0848-4.7232-2.3616 23.616-35.424 56.678-49.593 54.316l-28.339-4.7232z" fill-opacity=".17297" fill-rule="evenodd"/>
  <path d="m358.96 510.3 125.16-7.0847-11.808-193.65-9.4463-66.124s-23.616 35.424-44.87 101.55-30.701 89.74-33.062 110.99-25.977 54.316-25.977 54.316z" fill-opacity=".08649" fill-rule="evenodd"/>
  <path d="m493.57 489.04 49.593-125.16 40.147-160.59s-18.893 51.955-28.339 87.379-16.531 77.932-16.531 77.932-14.169 11.808-25.977 44.87-18.893 75.571-18.893 75.571z" fill-opacity=".08108" fill-rule="evenodd"/>
  <path d="m488.66 467.04 45.678-114.82 36.977-147.32s-17.401 47.661-26.102 80.157-15.226 71.492-15.226 71.492-13.051 10.832-23.927 41.162-17.401 69.325-17.401 69.325z" fill-opacity=".03243" fill-rule="evenodd"/>
  <path d="m552.61 500.85 146.42-33.062-44.87-144.06s16.531 63.763 4.7232 94.463-106.27 82.655-106.27 82.655z" fill-opacity=".08108" fill-rule="evenodd"/>
  <path d="m406.19 505.57 77.932-2.3616-7.0847-108.63s4.7232 80.294-7.0848 87.379-63.763 23.616-63.763 23.616z" fill-opacity=".08108" fill-rule="evenodd"/>
  <path d="m358.96 323.73s9.4463-63.763 11.808-92.102 0-61.401 0-61.401 2.3616 30.701 4.7232 49.593 4.7232 35.424 4.7232 35.424 0 21.254-7.0848 37.785-14.169 30.701-14.169 30.701z" fill-opacity=".17838" fill-rule="evenodd"/>
  <path d="m484.12 512.66 221.99-44.87" fill="none" stroke="#000" stroke-width="4.6"/>
  <path d="m342.43 510.3 139.33-7.0847" fill="none" stroke="#000" stroke-width="3.7"/>
  <path d="m337.71 507.94-136.97 9.4463" fill="none" stroke="#000" stroke-width="3.1"/>
  <path d="m524.27 293.03s9.4463-30.701 35.424-59.04 42.508-35.424 42.508-35.424-11.808-23.616-18.893-18.893-59.04 113.36-59.04 113.36z" fill-opacity=".17297" fill-rule="evenodd"/>
  <path d="m495.93 75.767 2.3616-44.87" fill="none" stroke="#000" stroke-width="1.4"/>
  <path d="m582.03 42.705s-23.616-7.0848-40.147-4.7232-40.147-4.7232-40.147-4.7232l-2.3616 42.508s0-16.531 14.169-16.531 7.0848 9.4463 30.701-2.3616 37.785-14.169 37.785-14.169z" fill="#7799eb" fill-rule="evenodd"/>
  <path d="m511.55 31.981 11.808 25.977s7.0848 7.0848 11.808-2.3616 0 4.7232-7.0847-4.7232-16.531-18.893-16.531-18.893z" fill-opacity=".21081" fill-rule="evenodd"/>
  <path d="m530.08 37.981h17.899s10.74 14.169-1.7899 14.169-16.109-14.169-16.109-14.169z" fill="#fff" fill-opacity=".49189" fill-rule="evenodd"/>
 </g>
</svg>
