<?xml version="1.0" encoding="UTF-8"?>
<svg enable-background="new 0 0 93.342 366.523" viewBox="0 0 93.342 366.523" xmlns="http://www.w3.org/2000/svg">
 <path d="m13.757,0c8.906,7.348 8.413,24.094 15.133,33.625-1.695,5.361 2.981,8.756 4.202,12.611 .688,2.168.136,6.279.841,9.246 2.656,11.168 7.444,22.266 7.566,33.625 .034,3.17 2.085,6.688 2.522,10.088 .356,2.772-.325,6.062 0,9.248 .545,5.352 1.295,10.825.841,17.653 3.134,1.909 10.204-.117 12.61,2.521 .067-13.302 5.594-30.856 4.202-45.396 1.986-3.913 4.625-11.61 2.522-16.813 1.725-.797 2.328-2.714 3.363-4.204 .344-2.024-1.537-1.827-.842-4.203 5.52-13.085 8.991-33.399 14.29-47.077 .708-1.825-1.694-9.522 5.046-4.203-.291,1.646-4.994,1.092-4.205,6.726 .287,2.049 1.293,3.055 3.363,4.204 2.637-2.983 2.257-13.415 5.885-12.611 5.235,1.448-.256,6.377-.841,8.407-1.133,3.934-1.073,9.095-2.522,13.45-.727,2.186-2.778,3.833-3.361,5.885-3.626,12.766-3.318,27.601-8.407,38.67 3.416,5.531-2.317,8.233.841,11.771-4.256,6.111-2.783,17.95-5.884,25.22-.464,1.864 1.604,1.197 1.683,2.521-3.498,4.912-2.551,14.266-4.205,21.019 2.6,2.811 4.682,5.392 7.565,8.406 1.065,1.113 2.851.914 3.362,1.681 3.021,4.518 2.648,10.249 5.045,15.972h-2.521c.762,1.482 3.094,1.39 3.362,3.363-1.155,6.863-.487,12.086-2.522,18.494-1.567,4.938-6.945,9.01-7.565,13.452-.698,5.003 3.017,8.698 4.203,13.448 2.552,10.194.282,20.55 2.522,30.266-1.863-.464-1.197,1.604-2.522,1.68 1.291,9.619-9.569,13.821-13.449,21.017-3.146.219-4.778,1.949-6.728,3.362 .863,16.887 1.871,33.012 3.363,52.121 1.413,18.104 7.403,35.536 7.566,51.279-6.287-2.682-4.68-13.254-11.77-15.131-1.49,5.438 4.119,8.177 3.361,10.088-2.261-.579-1.624,1.735-2.521,2.521-7.277-28.634-11.305-69.013-10.086-98.356-4.955-2.312-11.399.557-15.975-.841-.822,13.295-1.114,31.092-1.68,43.714-.22,2.584-1.824,3.78-2.522,5.886-.578,12.436-3.548,23.416-6.726,35.307-1.228,4.597-1.466,11.108-5.885,13.451-3.503-.419-3.604-4.243-5.044-6.726-1.962,1.398-2.158,4.565-3.361,6.726-2.295-2.715-.017-7.338.841-10.089 5.443-17.475 11.507-38.271 13.45-61.367 .708-8.423.256-17.241 1.682-26.9-15.154-6.357-22.022-15.387-22.698-29.423-.074-1.521-.923-1.675-.841-.841-.456-4.601-.741-11.442 1.681-16.813 2.928.558-.476,6.324 2.522,8.406-1.479.203-1.917,1.446-1.682,3.363 3.676,6.775-1.62,17.062 6.726,21.857 2.29,1.313 4.778,3.036 7.564,0-1.272-2.65-4.752-3.096-7.564-4.204 .703-1.817 2.175-2.868 1.68-5.885-8.093-5.639 1.934-21.109-8.406-26.061 1.214-7.474 5.447-11.928 8.406-17.654-5.082-11.552-8.071-15.931-10.086-29.423 3.516,3.182 2.89-7.125.84-5.885 4.817-15.98 13.851-29.633 31.944-34.466v-15.133c2.049,1.874 2.678,5.168 4.204,7.565-4.114-1.031-1.902,4.265-3.363,5.886 .119,2.403 3.507,1.536 5.885,1.682-3.511-8.252 2.644-9.745-1.681-17.653-3.069-2.186-3.776,1.678-5.885,0 .177-4.94-.631-8.896-2.521-11.77 .767-10.297-3.483-22.586-7.566-28.583 .875-8.66-3.94-18.315-7.566-25.218 .323-5.323.696-7.168-2.522-10.089 1.606-5.9-2.687-10.665-5.042-15.131 1.121-5.222-.224-10.291-5.044-11.769 1.22-2.421 1.22-6.064 5.044-5.883-.676,2.916 1.251,3.23.841,5.883 3.117-.596 3.607,1.437 6.724.84 2.09-2.704-2.553-4.293-1.682-8.405zm-4.201,10.927c2.288,2.195 1.602,7.364 7.564,5.886 1.891-3.43-3.459-10.716-7.564-5.886zm5.042,15.132c2.381.141 3.504,1.542 5.885,1.681 1.379-3.631-3.084-7.91-5.885-10.087-3.765,1.953.17,5.088 0,8.406zm68.934,1.681c.591-4.222.523-3.908.841-8.405-1.601-.36-2.11-1.812-4.204-1.682-.397,3.238-3.27,11.628 3.363,10.087zm-3.363,10.089c1.559-1.805.566-6.159.841-9.248h-3.362c-1.361,3.122-1.646,9.217 2.521,9.248zm-62.208-.841c2.673.129 3.698,1.907 6.726,1.682-1.09-4.795-2.737-9.03-8.407-9.248 .07,3.012 1.308,4.858 1.681,7.566zm60.526,10.928c-.967-2.354-.967-4.369 0-6.724-1.67-.012-1.067-2.293-3.362-1.682-2.015,2.879-2.767,9.424 3.362,8.406zm-51.278,0c-1.427-3.617-3.141-6.946-7.566-7.564 1.06,3.443 2.699,10.722 7.566,7.564zm47.075,10.089c2.72-1.46 2.234-8.67-1.68-8.406-2.484,1.663-2.149,8.27 1.68,8.406zm-47.916,2.522c2.568-.607 3.063.858 5.044.841-1.646-4.521-2.716-9.614-8.407-10.089 .107,4.097 2.558,5.849 3.363,9.248zm47.076,10.087v-10.087c-1.59.188-1.854-.947-3.362-.841-1.224,4.199-1.522,10.532 3.362,10.928zm-43.713,2.521h4.202c-.827-5.336-3.188-9.141-7.565-10.928 .893,3.871 2.182,7.345 3.363,10.928zm41.192,7.567c1.907-3.416.844-10.088-3.361-10.088-2.139,3.646-.752,9.997 3.361,10.088zm-42.033-5.044c3.002,2.881 1.931,9.839 7.565,10.088 2.632-4.571-5.299-13.129-7.565-10.088zm41.192,15.131c.375-3.737-.599-6.127-1.683-8.405h-2.521c-.971,3.691-.813,8.513 4.204,8.405zm-36.149,4.204c-.91,4.203.151,13.147 6.726,12.61-.688-5.757-3.073-9.818-6.726-12.61zm5.045-.841c-2.885-2.16-2.168-7.919-6.726-8.406-1.424,5.858 3.773,12.326 6.726,8.406zm24.378,5.885c1.766,1.037 3.276,2.326 5.043,3.363-.021-5.306.554-11.201-4.203-11.771 .498,3.58-.604,5.561-.84,8.408zm2.523,14.291c1.325-2.146 1.325-8.78 0-10.928-6.396-.588-5.139,11.251 0,10.928zm0,10.929c-1.19-4.103.495-9.651-5.045-10.93-.03,5.356-1.004,11.654 5.045,10.93zm-6.728,4.204c.994.969 2.974.951 5.045.84-.518-2.284-1.668-3.937-3.362-5.044-.855,1.104-.823,3.098-1.683,4.204zm-25.218,5.042c3.016,1.506 7.496-1.749 8.407-5.042-3.041-1.532-7.7,1.544-8.407,5.042zm10.929-.84c4.948,2.237 9.558-1.116 11.769-4.202-5.38-.745-11.451-1.969-11.769,4.202zm-20.175,7.566c2.302-3.861 6.92-5.409 8.406-10.087-4.383-1.939-13.1,5.555-8.406,10.087zm31.944-6.726c1.865,2.853 10.039,3.094 12.61,2.522-1.301-4.571-9.285-6.909-12.61-2.522zm-38.67,51.281c1.398,1.685 2.257,3.907 5.044,4.203 .98-3.699 1.441-9.141-3.363-9.248-.67,1.572-1.404,3.08-1.681,5.045zm13.452-42.033c.595,3.117-1.438,3.607-.841,6.727 2.103.697 3.301,2.302 5.883,2.521 1.807-2.154-.772-4.766.841-5.885 6.141.574 1.771,7.628.841,10.928-1.381,4.901-3.576,9.813-3.363,14.292-5.945,7.503-8.543,18.356-13.45,26.899 7.436,15.964 7.96,35.67 11.769,53.803 6.016.131 11.904.135 15.975-1.681 .949-15.073 2.634-27.88 6.724-40.353 2.237-6.823 6.724-13.215 6.726-19.335 .002-2.361-1.992-5.849-2.521-8.407-2.266-10.938-2.785-20.38-1.682-31.103 3.347,3.058 4.237,3.543 9.248,1.68 1.211,5.891-1.119,19.328 4.203,23.539 1.598-6.828-.072-16.428.842-21.856 1.502,4.661 3.231,9.097 8.404,10.089 .672-3.822-3.152-7.066 0-8.407-3.552-.93-6.289-2.677-10.087-3.363-.141-2.381-1.542-3.502-1.682-5.883-3.748-.946.511,6.115-4.203,4.204-1.384-3.1-2.091-6.877-5.886-7.567-1.812.71.314,5.359-1.682,5.886-1.33-2.154.805-6.654 0-10.93-3.895-2.218-12.712-2.783-15.972-.841 .029,3.614 4.466,2.819 3.363,7.566-5.752,1.38-10.929-3.88-15.972-5.885-10.197,7.104-18.719,27.23-10.929,42.031 6.053-11.32 8.004-26.74 13.451-38.669zm-16.815-2.522c.26,2.822-1.121,7.288 2.522,6.726 .411-4.075 3.531-5.437 4.204-9.248-2.577-2.156-4.424,1.802-6.726,2.522zm20.175.841c2.342,1.346 2.325-3.631.841-3.363-.264,1.136-1.196,1.605-.841,3.363zm30.265-1.681c.275,4.767 7.338,2.749 10.928,4.202-1.162-5.143-5.425-5.164-10.928-4.202zm-52.962,15.971c2.396-1.635 3.99-9.299 0-10.087-2.136,1.486-4.617,9.267 0,10.087zm59.689-5.042c2.039,1.322 3.59,3.134 7.563,2.521-.511-4.252-1.524-8-6.724-7.564 .609,2.569-1.451,2.471-.839,5.043zm-38.673,11.768c2.053-3.561.772-10.018-2.521-10.927-2.514,3.28-4.158,10.974 2.521,10.927zm31.946,3.363c-2.512-2.534-.061-10.029-5.887-9.248 .231,4.816 1.558,8.533 5.887,9.248zm-53.803,3.363v-9.248c-1.749-.492-2.717-1.767-4.202-2.522-.94,3.653-2.123,12.796 4.202,11.77zm12.611,10.928c5.242-.174 2.935-6.479 1.681-9.247 3.253.361 2.99.92 5.044-.84-.689-3.234-.657-7.192-4.204-7.567-.623,6.929-6.572,13.115-2.521,17.654zm55.482-4.204v-8.406c-2.185-.337-2.534-2.508-5.044-2.521-.657,5.981.834,9.815 5.044,10.927zm-12.608,2.522c.004-4.485-2.162-6.804-3.363-10.087h-2.521c-.808,6.131 1.526,9.119 5.884,10.087zm-55.485.841c1.377-3.376-2.235-8.181-5.883-9.246-.418,5.46 1.648,8.438 5.883,9.246zm63.89,3.362c1.25-.712 1.217-2.705 1.683-4.203-1.26-1.263-1.504-3.54-3.361-4.204-1.634,2.518-2.581,7.842 1.678,8.407zm-4.202,10.09c-1.188-5.33-3.588-11.309-9.248-14.292 1.213,6.633 2.176,13.518 9.248,14.292zm-57.166-4.205c2.469-3.978-1.855-7.392-5.042-8.407-3.241,2.769.672,8.184 5.042,8.407zm4.204,8.406c2.787-2.459 1.644-8.272-1.682-9.246-2.097,2.163-2.797,9.143 1.682,9.246zm-5.044-3.361c.236-1.917-.201-3.162-1.681-3.363 .192,1.489-.847,4.209 1.681,3.363zm61.367,12.609c-2.301-5.264-3.703-11.428-9.246-13.448 .779,6.783 1.996,13.133 9.246,13.448zm-63.888-3.362c1.071,1.73 1.339,4.264 4.202,4.203-.584-3.337 1.466-9.312-1.682-10.088-.862,1.938-2.893,2.711-2.52,5.885zm52.121-1.682c2.537,1.296 2.211-4.35.84-4.203-.706.976-1.109,2.254-.84,4.203zm-3.366,9.248c2.056.469 1.793,3.253 5.045,2.522-.561-3.645-.211-8.196-3.362-9.248-.957,1.845-2.169,3.435-1.683,6.726zm-48.755,6.724c1.733-2.774.791-8.85-.84-10.929-4.027.461-5.688,11.869.84,10.929zm63.888,12.611c-4.652-.697-4.699,6.639-3.361,9.246-1.59-.188-1.854.947-3.361.841 .08,6.526-5.99,6.901-7.567,11.771 .845,1.118.795,3.128 2.522,3.363 1.362-3.476 2.59-4.758 5.885-2.522 .021-4.463 3.561-5.407 2.521-10.929 1.59-.188 1.854.947 3.361.84-.153-4.16 1.898-7.413 0-10.927h3.361c-.854-5.029-1.711-10.059-4.201-13.452 1.158.038 1.846-.396 2.521-.841-.877-4.727-2.492-8.715-7.564-9.246 2.793,7.599 1.08,15.549 5.883,21.856zm-58.845-16.813c3.97-.729 4.91,4.562 7.566,2.521-.715-3.771-2.957-6.011-6.726-6.726 .269,1.951-.133,3.229-.84,4.205zm44.554,10.087c-.238-4.116 2.721-9.551-1.682-10.928-2.306,3.138-3.717,9.841 1.682,10.928zm0,24.379c9.501-6.531 11.013-20.768 8.406-35.307h-2.521c-1.482,12.249-5.996,21.463-5.885,35.307zm-36.988,3.363c-1.21-13.082-4.697-23.888-6.726-36.148-1.074-.046-1.164-1.077-2.522-.84-3.72,13.481-2.776,32.427 9.248,36.988zm-.84-24.379c-3.523,3.265 1.291,12.532 5.044,10.928-2.978-8.02-.127-17.622-8.407-21.017-2.571,4.08 2.248,7 3.363,10.089zm34.466,6.725c3.404-1.034.963-6.617.841-9.248h-3.363c.622,3.302-1.773,9.62 2.522,9.248zm0,11.769c.44-5.486-.621-9.467-3.362-11.77-2.088,3.817-2.516,11.568 3.362,11.77zm-34.466,6.725c-5.748-.374-4.56,6.783 0,6.725 2.173-1.591 1.046-4.132 0-6.725zm7.566,12.61c1.607-3.759-.28-5.689-1.681-10.088 1.179-4.575.97-13.436-4.204-14.292-2.741,4.994 2.63,8.366 2.522,13.451-.784-.514-3.102-1.956-2.522.841 1.762,3.561.69,9.959 5.885,10.088zm21.016,3.363c2.645-.401 3.286,1.196 5.043,1.683 1.682-3.979-1.057-8.399-2.521-11.77 5.174-.755 1.937-12.492-2.521-11.771 .955,9.622-1.075,12.354-.001,21.858zm-10.088-13.45c-2.729-.487-3.911.572-5.885.842-.187,1.589.948,1.854.841,3.36 2.074.111 4.051.129 5.044-.839v-3.363zm0,5.042c.638,3.065 2.684-.078 5.885.842 1.23-1.853 2.555-3.611 2.521-6.726-4.512.252-7.034,2.492-8.406,5.884zm-12.609,17.656c3.624-2.901-.072-10.45-3.363-11.771 0,5.043-.043,10.132 3.363,11.771zm27.74,1.681c1.496-3.247-1.616-8.217-5.043-9.247-.426,5.188 1.162,8.363 5.043,9.247zm-26.9,10.927c.129-2.383 1.843-12.839-4.204-11.77-.355,5.682.162,10.488 4.204,11.77zm27.741,0c.729-6.332-2.096-9.112-5.884-10.928-.782,6.384 1.065,10.144 5.884,10.928zm-33.626,10.089c-1.817,3.567.029,9.804 4.204,10.087-1.173-5.315 1.479-9.284-4.204-10.087zm5.045.839c1.729-3.16-.361-9.703-3.363-10.928-1.928,3.359-.844,10.91 3.363,10.928zm29.422,0c.256-3.896-.007-7.275-1.682-9.246-1.95.27-3.229-.136-4.202-.841-.703,6.027 1.714,8.936 5.884,10.087zm0,10.089c.965-2.964-.882-9.535-5.884-9.248 .141,4.901 1.1,8.986 5.884,9.248zm-31.104,9.248c-1.537-3.789.105-10.754-5.044-10.93-.048,5.373-.15,10.797 5.044,10.93zm33.625,5.883c-1.316-4.859-2.393-14.402-7.564-12.607 1.399,5.323 1.09,12.358 7.564,12.607zm-36.147,5.045c.295-6.18 1.162-10.082-4.204-11.769-.842,4.144-.466,10.747 4.204,11.769zm38.671,9.248c-.923-6.085-2.228-11.783-7.566-13.451-.996,4.818 1.775,12.663 7.566,13.451zm-41.193,0v-9.248c-1.245-.437-2.118-1.242-3.363-1.682-2.345,4.004-1.682,10.065 3.363,10.93zm-3.363,9.246c3.642-2.046 1.551-10.422-3.363-9.246-.187,4.39-.244,8.651 3.363,9.246zm45.395,1.682c.824-3.334-.7-10.875-6.727-10.087 .079,5.527 2.849,8.36 6.727,10.087zm-47.917,7.566c1.492-1.593.612-5.554.84-8.407-2.293.611-1.691-1.67-3.363-1.682-1.66,3.586-.854,9.063 2.523,10.089z"/>
</svg>
