<?xml version="1.0" encoding="UTF-8"?>
<svg viewBox="0 0 562.42 563.25" xmlns="http://www.w3.org/2000/svg">
 <defs>
  <filter id="d" color-interpolation-filters="sRGB">
   <feGaussianBlur stdDeviation="0.705708"/>
  </filter>
  <filter id="e" color-interpolation-filters="sRGB">
   <feGaussianBlur stdDeviation="0.705708"/>
  </filter>
  <filter id="f" color-interpolation-filters="sRGB">
   <feGaussianBlur stdDeviation="0.838601"/>
  </filter>
 </defs>
 <g transform="matrix(.88316 0 0 .88316 49.52 68.801)" fill="#00007f">
  <g transform="matrix(5.46 0 0 5.46 -1442.2 -636.19)" filter="url(#f)" opacity=".745" stroke="#000">
   <path d="m310.74 112.79c-26.616 0-48.219 21.603-48.219 48.219s21.603 48.219 48.219 48.219 48.219-21.603 48.219-48.219-21.603-48.219-48.219-48.219zm0 12.156c19.919-1.5e-5 36.062 16.144 36.062 36.062 0 19.919-16.144 36.094-36.062 36.094-19.919 0-36.094-16.175-36.094-36.094s16.175-36.062 36.094-36.062z"/>
   <path d="m309.26 124.5h3.1437c2.4199 9.447 1.7009 18.894 0 28.341h-3.1437c-1.4329-9.979-1.8716-19.6 0-28.341z"/>
   <path d="m284.42 136.34l2.2584-2.1237c8.1858 5.2311 14.117 12.583 19.342 20.598l-2.2584 2.1237c-7.8399-6.2845-14.722-12.981-19.342-20.598z"/>
   <path d="m317.99 156.43l-2.1429-2.1954c4.9753-8.2441 12.09-14.296 19.874-19.663l2.1429 2.1954c-6.0212 7.924-12.469 14.906-19.874 19.663z"/>
   <path d="m318.15 163.87l0.06-3.1431c9.5434-2.236 19.027-1.3336 28.492 0.55035l-0.0601 3.1431c-10.059 1.2388-19.74 1.4906-28.492-0.55032h9.2e-5z"/>
   <path d="m274.6 163.12l0.0591-3.1431c9.3874-2.236 18.716-1.3336 28.026 0.55035l-0.0591 3.1431c-9.895 1.2389-19.418 1.4906-28.026-0.55031z"/>
   <path d="m286.89 188.72l-2.194-2.2057c4.9653-8.4102 12.121-14.618 19.962-20.137l2.194 2.2057c-6.0289 8.0957-12.5 15.24-19.962 20.137z"/>
   <path d="m314.55 168.32l2.2166-2.1826c8.2893 5.1026 14.366 12.384 19.749 20.348l-2.2166 2.1825c-7.9642-6.1698-14.978-12.773-19.749-20.348z"/>
   <path d="m309.46 168.96l3.1436-0.0298c2.5107 9.4755 1.8826 18.981 0.2728 28.495l-3.1436 0.0298c-1.5288-10.02-2.0601-19.689-0.27277-28.495z"/>
   <path d="m310.73 152c-4.9806 0-9.0231 4.0426-9.0231 9.0232s4.0426 9.0231 9.0231 9.0231c4.9806 0 9.0231-4.0425 9.0231-9.0231s-4.0425-9.0232-9.0231-9.0232z"/>
   <path d="m346.18 128.32l-2.135-2.4896c3.2708-5.092 2.6778-5.2558 7.7952-8.5704 2.9606-0.61295 3.6471 1.935 2.9306 3.8065-3.9584 4.8943-3.7225 4.3153-8.5908 7.2536z"/>
   <path d="m276.22 127.7l2.2747-2.3627c-2.9725-5.2718-2.371-5.4012-7.2892-9.0047-2.9205-0.78226-3.7524 1.722-3.1448 3.6316 3.6703 5.1139 3.4681 4.5223 8.1592 7.7358z"/>
   <path d="m342.36 197.49l2.342-2.1267c4.907 3.5424 5.3625 3.089 8.3945 8.3788 0.45138 2.9896-2.13 3.5367-3.9599 2.7197-4.6722-4.2181-4.1069-3.9512-6.7766-8.9717z"/>
   <path d="m279.37 197.63l-2.4328-2.1996c-5.176 3.1363-5.3242 2.5392-8.7717 7.568-0.69034 2.9436 1.8388 3.6966 3.7284 3.0293 4.9963-3.8288 4.4114-3.6082 7.4762-8.3977z"/>
   <path d="m310.88 112.79c-26.616 0-48.219 21.603-48.219 48.219 0 13.529 5.5774 25.771 14.562 34.531-8.3426-8.6698-13.469-20.465-13.469-33.438 0-26.616 21.603-48.219 48.219-48.219 12.762 0 24.372 4.9584 33 13.062-8.7277-8.7277-20.786-14.156-34.094-14.156zm25.938 23.188c6.2637 6.4869 10.125 15.3 10.125 25.031 0 19.919-16.144 36.094-36.062 36.094-9.731 0-18.568-3.8537-25.062-10.125 6.5775 6.9154 15.87 11.219 26.156 11.219 19.919 0 36.062-16.175 36.062-36.094 0-10.287-4.3113-19.556-11.219-26.125z" filter="url(#e)"/>
  </g>
  <g transform="matrix(5.46 0 0 5.46 -1448 -648.5)">
   <path d="m310.74 112.79c-26.616 0-48.219 21.603-48.219 48.219s21.603 48.219 48.219 48.219 48.219-21.603 48.219-48.219-21.603-48.219-48.219-48.219zm0 12.156c19.919-1.5e-5 36.062 16.144 36.062 36.062 0 19.919-16.144 36.094-36.062 36.094-19.919 0-36.094-16.175-36.094-36.094s16.175-36.062 36.094-36.062z"/>
   <path d="m309.26 124.5h3.1437c2.4199 9.447 1.7009 18.894 0 28.341h-3.1437c-1.4329-9.979-1.8716-19.6 0-28.341z"/>
   <path d="m284.42 136.34l2.2584-2.1237c8.1858 5.2311 14.117 12.583 19.342 20.598l-2.2584 2.1237c-7.8399-6.2845-14.722-12.981-19.342-20.598z"/>
   <path d="m317.99 156.43l-2.1429-2.1954c4.9753-8.2441 12.09-14.296 19.874-19.663l2.1429 2.1954c-6.0212 7.924-12.469 14.906-19.874 19.663z"/>
   <path d="m318.15 163.87l0.06-3.1431c9.5434-2.236 19.027-1.3336 28.492 0.55035l-0.0601 3.1431c-10.059 1.2388-19.74 1.4906-28.492-0.55032h9.2e-5z"/>
   <path d="m274.6 163.12l0.0591-3.1431c9.3874-2.236 18.716-1.3336 28.026 0.55035l-0.0591 3.1431c-9.895 1.2389-19.418 1.4906-28.026-0.55031z"/>
   <path d="m286.89 188.72l-2.194-2.2057c4.9653-8.4102 12.121-14.618 19.962-20.137l2.194 2.2057c-6.0289 8.0957-12.5 15.24-19.962 20.137z"/>
   <path d="m314.55 168.32l2.2166-2.1826c8.2893 5.1026 14.366 12.384 19.749 20.348l-2.2166 2.1825c-7.9642-6.1698-14.978-12.773-19.749-20.348z"/>
   <path d="m309.46 168.96l3.1436-0.0298c2.5107 9.4755 1.8826 18.981 0.2728 28.495l-3.1436 0.0298c-1.5288-10.02-2.0601-19.689-0.27277-28.495z"/>
   <path d="m310.73 152c-4.9806 0-9.0231 4.0426-9.0231 9.0232s4.0426 9.0231 9.0231 9.0231c4.9806 0 9.0231-4.0425 9.0231-9.0231s-4.0425-9.0232-9.0231-9.0232z"/>
   <path d="m346.18 128.32l-2.135-2.4896c3.2708-5.092 2.6778-5.2558 7.7952-8.5704 2.9606-0.61295 3.6471 1.935 2.9306 3.8065-3.9584 4.8943-3.7225 4.3153-8.5908 7.2536z"/>
   <path d="m276.22 127.7l2.2747-2.3627c-2.9725-5.2718-2.371-5.4012-7.2892-9.0047-2.9205-0.78226-3.7524 1.722-3.1448 3.6316 3.6703 5.1139 3.4681 4.5223 8.1592 7.7358z"/>
   <path d="m342.36 197.49l2.342-2.1267c4.907 3.5424 5.3625 3.089 8.3945 8.3788 0.45138 2.9896-2.13 3.5367-3.9599 2.7197-4.6722-4.2181-4.1069-3.9512-6.7766-8.9717z"/>
   <path d="m279.37 197.63l-2.4328-2.1996c-5.176 3.1363-5.3242 2.5392-8.7717 7.568-0.69034 2.9436 1.8388 3.6966 3.7284 3.0293 4.9963-3.8288 4.4114-3.6082 7.4762-8.3977z"/>
   <path d="m310.88 112.79c-26.616 0-48.219 21.603-48.219 48.219 0 13.529 5.5774 25.771 14.562 34.531-8.3426-8.6698-13.469-20.465-13.469-33.438 0-26.616 21.603-48.219 48.219-48.219 12.762 0 24.372 4.9584 33 13.062-8.7277-8.7277-20.786-14.156-34.094-14.156zm25.938 23.188c6.2637 6.4869 10.125 15.3 10.125 25.031 0 19.919-16.144 36.094-36.062 36.094-9.731 0-18.568-3.8537-25.062-10.125 6.5775 6.9154 15.87 11.219 26.156 11.219 19.919 0 36.062-16.175 36.062-36.094 0-10.287-4.3113-19.556-11.219-26.125z" filter="url(#d)"/>
  </g>
 </g>
</svg>
