<?xml version="1.0" encoding="UTF-8"?>
<svg enable-background="new 0 0 299.043 301" viewBox="0 0 299.043 301" xmlns="http://www.w3.org/2000/svg">
 <path d="m212.48 150.75a63.725 62.774 0 1 0 -127.45 0 63.725 62.774 0 1 0 127.45 0" fill="#c2a204"/>
 <path d="m150.07 43.619c-59.452 0-107.65 47.476-107.65 106.04s48.194 106.04 107.65 106.04 107.65-47.478 107.65-106.04-48.196-106.04-107.65-106.04zm0 190.87c-47.562 0-86.117-37.982-86.117-84.833s38.555-84.833 86.117-84.833 86.116 37.981 86.116 84.833-38.558 84.833-86.116 84.833z" fill="#c2a204"/>
 <path d="m142 93c43.661-6.603 80.987 41.339 58 85-11.148 21.172-43.311 42.039-77 25-34.726-17.562-41.069-71.329-11-97 7.478-6.386 18.227-11.22 30-13z" fill="#53301a"/>
 <path d="m228 102c2.636-0.305 2.576 2.087 3 4-1.464-0.87-3.17-1.498-3-4z" fill="#53301a"/>
 <path d="m104 235c1.158-3.951 1.158 3.951 0 0z" fill="#53301a"/>
 <path d="m182 239c0.246-1.259 1.986-1.009 2 0-0.89 0.614-1.791 1.208-2 0z" fill="#53301a"/>
 <path d="m35.004,117c-.851.184-.944-.39-1-1h1v-1c.85-.184.943.389 1,1h-1v1z" fill="#53301a"/>
 <path d="m33.504,114.5 .5,1.5c-12.808-3.53-34.356-3.64-34-17 4.647-5.737 11.343-2.75 16-1 7.459,2.802 11.86,9.92 22,11 3.87.412 7.82-2.238 12,0l.5,1.5 1.5-.5c.474,3.141-1.248,4.086-3,5l-.5-1.5-1.5.5c-2.503-.125-3.131-1.909-4,1 1.793-.127 2.109,1.224 4,1l.5,1.5 1.5-.5c.603,3.937-1.474,5.193-3,7l-.5-1.5-1.5.5c-2.877-1.124-6.74-1.261-7-5h1v-1c3.562-.834-2.447-5.282-3-2l-1.5-.5z" fill="#53301a"/>
 <path d="m68.504,82.5-1.5-.5c5.416-6.917 11.431-13.235 19-18l1.166,1.5 1.834-.5c-.001.333-.001.667 0,1v1h1c-6.178,6.489-14.732,10.602-19,19-1.314-.354-1.573-1.761-3-2l.5-1.5z" fill="#53301a"/>
 <path d="m96.837,56.5-1.833.5c-.89-2.444-2.332-4.336-2-8l1.5.5 .5-1.5h2l1.166,1.5 1.834-.5c.776.889 1.074,2.258 1,4h1l-.5,1.833 1.5,1.167-1.5-.5 .5,1.5c-1.794-.127-2.11,1.224-4,1l-1.167-1.5z" fill="#53301a"/>
 <path d="m94.504,43.5-1.5.5c-3.073-12.843-21.204-20.456-13-38 15.235,1.81 12.157,21.034 19,31 3.543,5.162 9.435,4.01 10,11l-1.786-.357-1.214,1.357c-2.443,2.535-2.131-2.108-6-1l-1.5-.5-1.5.5c1.142-2.694.589-4.807-2-3l-.5-1.5z" fill="#53301a"/>
 <path d="m183.504,34.167-1.5-1.167c2.72-13.945 3.306-30.027 17-33 6.358,15.291-8.312,23.27-10,34-.781,4.951 3.076,10.004 1,16l-1.5-.5-.5,1.5c-1.781.598-4.153-2.932-5,0l-.5-.5-.5-.5c-1.164.163-1.78-.221-2-1l.5-1.5-.5-1.5c1.759-.241 2.277-1.721 2-4l.5-1.5-.5-1.5c1.211.306 3.447-2.889 1-3l.5-1.833z" fill="#53301a"/>
 <path d="m244.504,96.5-.5-1.5c3.06-.063 5.209-3.672 8-1l-.5,1.5 1.5.5c.16,1.172 1.822.843 3,1v-2l1.5-.5-.5-1.5c11.597-3.869 18.692-17.126 35-13-.256,15.849-17.808,13.341-28,19-6.231,3.458-6.944,8.416-13,11l-1.5-.5-1.5.5c.549-2.051-1.912-2.386-2-1l-1-.5-1,.5c-1.248-2.421-2.478-4.858-3-8l.5.5 .5-.5c4.08.304.533-2.088 1-4l1.5-.5zm4.5,5.5c5.143-2.417-3.444-2.584 0,0z" fill="#53301a"/>
 <path d="m256.504,146.5 1.5-.5c-.073,6.593.469,13.803-1,19l-1.5-.5-.5,1.5h-2l.5-1.5-1.5-.5c.851-7.65.488-12.12 1-17l1.5.5 .5-1.5 1.5.5z" fill="#53301a"/>
 <path d="m260.103,182.898 .901-1.898c.849-.186.941.389 1,1l-1.5,1.165 .5,1.835h-1l.099-2.102z" fill="#53301a"/>
 <path d="m263.504,184.5 .5-1.5c12.615,5.243 36.144,4.254 35,20-14.248,6.302-23.494-8.066-35-11-7.1.368-8.137,2.434-14,0l-.5-1.5-1.5-.5c.291-.615 2.486-3.85 0-4l.5-1.5-1.5-.5v-1l2.5.5 .5-2.5h1l1.5.5 1.5-.5c.127,1.793-1.227,2.107-1,4h5l.5,1.5 1.5-.5c-.369,1.7.777,1.885 2,2 .188-.811 1.002-.997 1-2l.5-1.5z" fill="#53301a"/>
 <path d="m227.504,223.5 1.5.5c-2.74,2.26-4.849,5.152-8,7l-.5-1.5-1.5-.5 .5-1.5-1.5-.5c1.576-2.424 3.576-4.424 6-6l.5,1.5 1.5-.5h1l.5,1.5z" fill="#53301a"/>
 <path d="m207.004,257.5 1,.5c5.805,9.576 17.451,18.482 13,35-16.582-.615-12.698-20.754-20-31-3.604-5.055-8.656-4.135-10-11l.5-1.5-.5-1.5c3.729-.936 4.586-4.746 9-5l-.357,1.785 1.357,1.215c-.045,1.71.742,2.589 2,3l-.5,1.833 1.5,1.167c-1.814.677.806,7.629 2,5l1,.5z" fill="#53301a"/>
 <path d="m120.504,254 .5,1c-3.937.73-2.393,6.941-6,8l-.5-1.5-1.5.5c-.554-3.282-6.563,1.166-3,2l-.5,1.5 1.5.5c-4.649,12.684-3.088,31.579-17,35-11.653-13.093 6.772-24.086 9-38 .803-5.021-2.668-8.523 0-14l1.5-.5-.5-1.5c2.555.443 4.597,1.4 6,3l-1.5,1.166 .5,1.834h-1c0,1-.001,2 0,3 2.688.688 1.932-2.066 3-3l.5-1.5 .5-1.5c2.048,1.618 6.552.779 8,3l.5,1z" fill="#53301a"/>
 <path d="m56.504,205.5-.5,1.5c-3.523,1.6-4.64,3.385-9,2l.5-1.835-1.5-1.165c-.248-1.259-1.989-1.009-2,0l-.5,1.5 .5,1.5c-6.532,1.127-13.294,7.843-20,12-5.653,3.504-13.548,9.201-19,1 3.423-15.243 24.374-12.96 35-21 2.411-3.922 5.153-7.514 9-10l1,.5 1-.5c2.784.45-.785-5.451 2-5 .798,1.868 1.67,3.662 2,6l-1.75.25-.25,1.75c-.151,2.482.516,4.148 2,5l.5,1.5 1.5-.5c.875,3.54.124,2.458 1,6l-1.5-.5z" fill="#53301a"/>
 <path d="m131.504,254.5-2.5-.5c-.19-.811-1.003-.997-1-2h1v-1c2.318-.318 3.839.16 5,1l-.5,1 .5,1v1l-2.5-.5z" fill="#53301a"/>
 <path d="m181.004,57c-1.006,1.329-.947,3.721-3,4h-2-2c-.319-2.319.16-3.84 1-5l.5-1-.5-1c1.752.914 4.988.343 6,2l-1.5.5 1.5.5z" fill="#53301a"/>
 <path d="m61.504,121.5-.5,1.5c-1.584-.083-3.815.48-4-1v-2-2c2.279-.28 3.759.241 4,2l.5,1.5z" fill="#53301a"/>
 <path d="m62.004,194.665v-1.665c.56-1.439 1.56-2.439 3-3l1,1.75 1-1.75c.972.025.776,1.225 1,2l-.5,1 .5,1c-1.205,1.129-1.813,2.854-5,2l-1-1.335z" fill="#53301a"/>
 <path d="m236.004,181.5-1,.5c.328-2.338 1.201-4.132 2-6l1,.5 1,.5c1.709-.044 2.588.742 3,2v2 2c-2.828.826-2.592-1.411-5-1l-1-.5z" fill="#53301a"/>
 <path d="m233.504,110.5-.5,1.5c-1.442-.227-.352-2.985-2-3 .631-3.034 4.584-2.748 6-5h1v-1c1.48.85 2.147,2.517 2,5l-1.5.5 .5,1.5c-.892.776-2.26,1.075-4,1l-1.5-.5z" fill="#53301a"/>
 <path d="m195.504,237 .5,1c-2.092,1.909-4.776,3.225-8,4l.498-1.5-1.498-.5c-.043-3.708 5.543-1.79 4-7l1.5-.5 1.5.5c4.66-.878-1.379,2.593 2,3l-.5,1z" fill="#53301a"/>
 <path d="m107.004,67c-.973-.028-.777-1.224-1-2l1.166-1.5 1.834-.5c2.078.56 2.119,1.56 1,3l-1.25,1.25-1.75-.25z" fill="#53301a"/>
 <path d="m80.004,100h1l-.5,1.5 1.5.5c-2.696,3.304-4.386,7.614-7,11l-.5-1.5-1.5.5h-1v-1h-1c2.639-4.028 4.328-9.005 8-12v1h1z" fill="#53301a"/>
 <path d="m107.504,78.5-1.5-.5c1.499-1.167 2.444-2.888 5-3l-.357,1.785 1.357,1.215c.566,1.78 2.78.144 1,0l.5-1.833-1.5-1.167c1.665-2.334 5.431-2.569 8-4l.5,1.5 1.5.5v9c2.36,1.639 5.285,2.714 4,8h1l-.5,1.5 .5,1.5c-.028.972-1.224.776-2,1l-1.167-1.5-1.833.5c.181-2.182-.819-3.182-3-3l.5-1.5-1.5-.5c-.547-1.453 1.168-5.169-1-5-.19.81-1.003.997-1,2h-1v1c-2.521-2.146-6.851-2.484-8-6l.5-1.5z" fill="#53301a"/>
 <path d="m171.504,69.833-.5-1.833c3.244-.58 4.65.681 7,1l1,.5 1-.5c.188.81 1.002.997 1,2l-1.5.5 .5,1.5c-5.229,5.651-5.142,10.864-9,17l-1.5.5 .5,1.5c-2.562-.106-4.77-.566-6-2l2-1.5-2-1.5 2,1.5v-2.5c2.473.127 1.697-1.225 0-1l.099-2.1-2.099.1c-2.448-.111-.215-3.307 1-3l.5,1.5 1.5-.5c2.264-.039 4.584-5.652 1-3l-.5-1.5-1.5-.5v-1l2.099.1-.099-2.1c.889-.443 1.787-.878 2-2l1.5-1.167z" fill="#53301a"/>
 <path d="m236.504,149.5 1.5.5c.224,5.225-.019,9.982-1,14l-1.5-.5-.5,1.5h-1l.5-2.5-2.5.5c.427-4.573 1.52-8.479 1-14l1.832.5 1.168-1.5h1l-.5,1.5z" fill="#53301a"/>
 <path d="m230.504,179.5 1.5-.5c1.761,2.74-2.5,6.37-3,10l-1-.5-1,.5h-1l.5-1.5-1.5-.5v-3c-3.137-3.425-7.68-8.385-13-4 .228-3.562-1.439-5.229-5-5l-.5-1.5-1.5.5c1.002-3.332 1.795-6.87 3-10l1,.5 1,.5c.849-.186.941.389 1,1l.5,1 .5,1c-1.455.441.101.878 0,2h2v-2l1.5-.5-.5-1.5c.889-.777 2.257-1.076 4-1-.698,3.697 1.58,4.417 5,4l.5,1.5 1.5-.5c-.469,2.134 1.427,1.904 3,2l1.213,1.355 1.787-.355c.408,2.409-1.828,2.173-1,5l-.5,1.5z" fill="#53301a"/>
 <path d="m194.504,220.5 1.5.5c-.354,1.312-1.762,1.572-2,3l-.752,1h-1.248c-4.195.805-6.486,3.514-11,4l-.5-1.5-1.5.5c-.615-4.863-.615-5.139 0-10-4.974-.309-4.844-4.174-5-7h-3l.5-1.835-1.5-1.165c3.771-2.227 7.367-4.632 12-6l.5,1.5 1.5-.5c-1.309,4.307 2.836,3.162 4,5-1.152,1.182-1.133,3.534-1,6 3.922.408 5.531,3.135 8,5l-.5,1.5z" fill="#53301a"/>
 <path d="m179.504,232 .5,1c-3.531,1.135-6.235,3.1-11,3l.5-1.5-1.5-.5 1.748-1-1.748-1c2.326-1.674 5.387-2.611 9-3l.5,1.5 1.5-.5c-.187.85.389.941 1,1l-.5,1z" fill="#53301a"/>
 <path d="m144.504,237.5 .5,1.5c-2.819-1.85-9.356.021-12-2l.5-1-.5-1v-1l1.5-.5-.5-1.5c3.766.898 9.035.298 12,2l.5,1 .5,1c-.851-.186-.944.389-1,1l-1.5.5z" fill="#53301a"/>
 <path d="m109.504,227.5-.5,1.5c-.805-.529-1.624-1.044-3-1-.282-1.615.944-1.723 1-3l1.5-.5-.5-1.5c1.162-.163 1.778.221 2,1l-.864,1.954 1.864,1.046c0,.333-.001.665 0,1l-1.5-.5z" fill="#53301a"/>
 <path d="m98.504,218.5 .5,1.5c-7.344,1.995-11.234-8.089-16-12h1v-1-1l1.5.5 .5-1.5c4.832,4.167 9.378,8.621 14,13l-1.5.5z" fill="#53301a"/>
 <path d="m82.004,206v1c-3.969-3.365-6.732-7.936-9-13l1.5.5-.5-1.5c1.453-.443-.103-.879 0-2l.785-1.645 1.215-1.355c1.71.043 2.589-.744 3-2-1.419-.086-2.832-.166-3,1l-1.834-.5-1.166,1.5c-1.086-.248-.679-1.99-2-2l.5-1.5-1.5-.5v-2l1.5.5 .5-1.5c3.385-.282 5.742-1.591 10-1 2.003-4.878 5.369-2.678 9-5l1.5.5 .5-1.5c1.482.85 2.149,2.518 2,5l-2.5-.5-.5,2.5c-1.147.354-2.535,1.76-1,2l-.5,1.833 1.5,1.167c.763,5.473-3.223,1.525-6,2l.5-1-.5-1c3.678-.708-4.046-2.492-2,1v1h1c-.04,4.293-4.415,4.252-5,8 .463,3.203 3.807,3.525 4,7l-.5,1 .5,1c-.851-.186-.944.389-1,1h-1z" fill="#53301a"/>
 <path d="m68.004,181.5-1,.5c-1.576-6.424-7.872-17.674-3-24l.5,1.5 1.5-.5c1.671,6.995 3.529,13.805 5,21l-1.5.5 .5,1.5h-1l-1-.5z" fill="#53301a"/>
 <path d="m69.254,129.25-1.25-1.25c.493-4.84 2.506-8.161 4-12l.5,1.5 1.5.5c3.974,1.514 6.032,7.464 12,4 1.128,1.872 1.182,4.817 5,4l-.5,1.5 1.5.5c.085,1.418.165,2.831-1,3l-1.072-1.786-1.928.786c-2.09-.424-2.648.685-4,1l-.5-1.5-1.5-.5c-.89-.777-2.259-1.076-4-1v2l-1.5-.5-.5,1.5c-.028.972-1.224.776-2,1l.5-1.5-1.5-.5v-2c-1.164-.163-1.78.221-2,1l-1.75.25z" fill="#53301a"/>
 <path d="m216.504,114-.5-1c-.281-2.28.238-3.759 2-4l.5,1.5 1.5.5v1h2v-2l1.213-1.357 1.787.357c1.666,1.333 1.552,4.447 3,6l-.5,1.5 1.5-.5v2l-1.5,1.167 .5,1.833c-5.881.455-11.438,1.229-13,6-.422-2.226-5.308-.783-6,0v1l-1.5-.5-1.5.5c-.975-.028-.777-1.224-1-2l1.5-1.167-.5-1.833c1.484-1.182 4.468-.866 4-4l1.832.5 1.168-1.5c1.947.473 5.113-2.691 3-3l.5-1z" fill="#53301a"/>
 <path d="m117.004,90v2c-4.896,1.424-4.486-2.805-2-4h1v-1c.85-.184.943.389 1,1v2z" fill="#53301a"/>
 <path d="m122.837,207.5 1.167-1.5c2.561.771 5.668.997 7,3l.5,1.5 .5,1.5c-.811.189-.998,1.003-2,1 .027,3.023 4.232,5.771-1,6l-1-.5-1,.5c-.715-3.684-5.829,2.992-1,2l-.5,1.5 1.5.5c.972.025.776,1.225 1,2l-1.5-.5-.5,1.5c-2.182-.182-3.182.818-3,3l-1.5.5 .5,1.5h-4l-1.644-.786-1.356-1.214c-.227-1.439-2.985-.35-3-2l.5-1.5-.5-1.5c5.187-3.479 6.787-10.547 9-17l1.833.5z" fill="#53301a"/>
 <path d="m230.504,120.833-.5-1.833h1l-.103,2.1-1.897.9 1.5-1.167z" fill="#53301a"/>
 <path d="m82.004,132.667 1,1.333c-.248,1.257-1.989,1.008-2,0l.5-1.5-.5-1.5h1v1.667z" fill="#53301a"/>
 <path d="m200 230c1.785-0.297 0.061 3.879-2 3-0.55-2.218 1.911-1.425 2-3z" fill="#53301a"/>
 <path d="m126.504,58.5c.47-.529 1.228-.772 2-1" fill="none" stroke="#000" stroke-linecap="round" stroke-width="1.4832"/>
 <path d="m228.5 88.5c-1.723-1.09-3.008-2.75-4.5-4" fill="none" stroke="#000" stroke-linecap="round" stroke-width="1.3784"/>
 <path d="m46.504,145.5c.421-4.451-.161-9.398 2-13" fill="none" stroke="#000" stroke-linecap="round" stroke-width="1.4402"/>
 <path d="m64.504,131.5c-.502.903-.381,2.156-1,3" fill="none" stroke="#000" stroke-linecap="round" stroke-width="1.9272"/>
 <path d="m59.504,95.75c.648-5.478 4.59-10.212 9-13.25" fill="none" stroke="#000" stroke-linecap="round" stroke-width="1.8708"/>
 <path d="m87.17,65.5c.876-3.392 4.358-4.935 7.583-5" fill="none" stroke="#000" stroke-linecap="round" stroke-width="2.337"/>
 <path d="m94.754,60.5c.149-.777 1.3-2.396 2.083-4" fill="none" stroke="#000" stroke-linecap="round" stroke-width="3.4059"/>
 <path d="m94.504,49.5c-.672-1.886-.756-4.12 0-6" fill="none" stroke="#000" stroke-linecap="round" stroke-width="2.1344"/>
 <path d="m113.5 50.5c15.231-6.147 32.665-8.871 49-6" fill="none" stroke="#000" stroke-linecap="round" stroke-width="2.6278"/>
 <path d="m162.5 44.5c4.742-1.998 9.363 3.1 14 0" fill="none" stroke="#000" stroke-linecap="round" stroke-width="2.6943"/>
 <path d="m176.504,44.5c.301-1.384.537-2.895 1.498-4" fill="none" stroke="#000" stroke-linecap="round" stroke-width="4.7509"/>
 <path d="m178 40.5c0.127-3.257 2.815-5.118 5.502-6.333" fill="none" stroke="#000" stroke-linecap="round" stroke-width="2.2803"/>
 <path d="m192.5 52.5c2.858-0.184 4.512 2.099 6.599 3.6" fill="none" stroke="#000" stroke-linecap="round" stroke-width="2.6165"/>
 <path d="m199.1 56.1c19.933 6.096 33.087 24.741 45.401 40.4" fill="none" stroke="#000" stroke-linecap="round" stroke-width="1.9012"/>
 <path d="m253.17,121.833 .517.33c.224.95.599,2.739.817,4.337" fill="none" stroke="#000" stroke-linecap="round" stroke-width="2.4238"/>
 <path d="m254.504,126.5c.477,1.438.4,2.553.332,3.333" fill="none" stroke="#000" stroke-linecap="round" stroke-width="2.273"/>
 <path d="m254.836,129.833c1.406,1.489.763,3.031.416,4.417" fill="none" stroke="#000" stroke-linecap="round" stroke-width="2.3299"/>
 <path d="m255.252,134.25c.891,1.543 1.435,3.482.918,5.25" fill="none" stroke="#000" stroke-linecap="round" stroke-width="2.7839"/>
 <path d="m256.17,139.5c.578,2.282.23,4.671.334,7" fill="none" stroke="#000" stroke-linecap="round" stroke-width="3.0822"/>
 <path d="m252.336,176.665c.34.685.683,1.365 1.022,2.049" fill="none" stroke="#000" stroke-linecap="round" stroke-width="4.4721"/>
 <path d="m253.36,178.714c2.566.779 5.389,1.646 6.743,4.187" fill="none" stroke="#000" stroke-linecap="round" stroke-width="3.496"/>
 <path d="m244.5 196.5c1.326 4.275-2.615 7.867-5 11" fill="none" stroke="#000" stroke-linecap="round" stroke-width="2.3452"/>
 <path d="m239.5 207.5c-2.729 6.205-7.549 11.105-12 16" fill="none" stroke="#000" stroke-linecap="round" stroke-width="2.222"/>
 <path d="m203.9 243.1c0.877 2.224 2.604 4.416 1.965 6.945" fill="none" stroke="#000" stroke-linecap="round" stroke-width="3.4902"/>
 <path d="m205.87 250.04c1.465 2.225 1.084 4.939 1.137 7.455" fill="none" stroke="#000" stroke-linecap="round" stroke-width="2.4053"/>
 <path d="m131.5 254.5c-3.58 2.436-7.449-0.163-11-0.5" fill="none" stroke="#000" stroke-linecap="round" stroke-width="2.6457"/>
 <path d="m104.5 248.5c-19.58-9.766-36.041-24.824-48-43" fill="none" stroke="#000" stroke-linecap="round" stroke-width="1.9265"/>
 <path d="m46.104,175.1c-6.847-16.688-3.21-35.402-.599-52.6" fill="none" stroke="#000" stroke-linecap="round" stroke-width="2.3071"/>
 <path d="m38.004,118c-.963-.387-2.151-1.272-3-2" fill="none" stroke="#000" stroke-linecap="round" stroke-width="1.2"/>
 <path d="m33.504 114.5 1.5 1.5" fill="none" stroke="#000" stroke-linecap="round" stroke-width="1.4142"/>
 <path d="m178 40.5h4.502" fill="none" stroke="#000" stroke-linecap="round" stroke-width="3.0659"/>
 <path d="m176.5 44.5c0.797 1.873 2.389 2.284 4 3" fill="none" stroke="#000" stroke-linecap="round" stroke-width="2.7689"/>
 <path d="m98.17,49.5c.182-.667.261-1.333.334-2" fill="none" stroke="#000" stroke-linecap="round" stroke-width="3.0822"/>
 <path d="m46.104,175.1c.615-.063 1.269-.121 1.8-.199" fill="none" stroke="#000" stroke-linecap="round" stroke-width="4.0825"/>
 <path d="m47.904,174.898c.886-3.047-.573-6.265-.399-9.398" fill="none" stroke="#000" stroke-linecap="round" stroke-width="2.0292"/>
 <path d="m47.904 174.9c1.91 2.576 4.964 7.939 1.2 10.201" fill="none" stroke="#000" stroke-linecap="round" stroke-width="1.9748"/>
 <path d="m49.104,185.1c-.543,2.332.204,4.352.901,6.4" fill="none" stroke="#000" stroke-linecap="round" stroke-width="2.7928"/>
 <path d="m57.004 198.75c5.068 5.7 8.664 13.402 14 19.25" fill="none" stroke="#000" stroke-linecap="round" stroke-width="1.425"/>
 <path d="m57.004,198.75c-.536.387-1.02,1.062-1.5,1.75" fill="none" stroke="#000" stroke-linecap="round" stroke-width="2.2361"/>
 <path d="m76.504 223.5c14.371 14.521 32.753 24.102 52.5 28.5" fill="none" stroke="#000" stroke-linecap="round" stroke-width="1.2777"/>
 <path d="m155.5 255.5c2.41-3.037 7.346-3.341 10.502-1.5" fill="none" stroke="#000" stroke-linecap="round" stroke-width="2.3558"/>
 <path d="m166 254c18.455-6.604 37.356-14.059 53.5-26.5" fill="none" stroke="#000" stroke-linecap="round" stroke-width="1.5442"/>
 <path d="m224.5 222.5c3.166-5.828 7.779-11.287 12.5-15.75" fill="none" stroke="#000" stroke-linecap="round" stroke-width="1.5106"/>
 <path d="m237 206.75c0.832-4.136 3.348-8.53 7.5-10.25" fill="none" stroke="#000" stroke-linecap="round" stroke-width="1.8371"/>
 <path d="m244.504,196.5c.055-.277.109-.557.166-.835" fill="none" stroke="#000" stroke-linecap="round" stroke-width="5.099"/>
 <path d="m244.67 195.66c-1.25-3.752 1.045-8.668 3.834-11.165" fill="none" stroke="#000" stroke-linecap="round" stroke-width="1.9868"/>
 <path d="m249.5 183.5c-1.162-2.593-0.266-5.355 2-7" fill="none" stroke="#000" stroke-linecap="round" stroke-width="2.51"/>
 <path d="m251.5 176.5c-1.514-3.711-0.42-8.846 2-12" fill="none" stroke="#000" stroke-linecap="round" stroke-width="1.7029"/>
 <path d="m250.17 123.17c-1.568-4.877-3.082-9.783-5.166-14.667" fill="none" stroke="#000" stroke-linecap="round" stroke-width="1.4015"/>
 <path d="m215.5 69.5c10.199 9.153 19.576 19.849 26 32" fill="none" stroke="#000" stroke-linecap="round" stroke-width="1.0614"/>
 <path d="m198.5 57.5c1.66 4.262 8.033 3.964 10 8" fill="none" stroke="#000" stroke-linecap="round" stroke-width="1.3077"/>
 <path d="m191 55c-2.957-0.708-7.412-1.353-8.5-4.5" fill="none" stroke="#000" stroke-linecap="round" stroke-width="1.4903"/>
 <path d="m161 47c2.734 0.846 5.543 1.806 8.5 1.5" fill="none" stroke="#000" stroke-linecap="round" stroke-width="1.4349"/>
 <path d="m95.004,61c-.398,3.272-3.369,4.759-6,6" fill="none" stroke="#000" stroke-linecap="round" stroke-width="1.7701"/>
 <path d="m60.218,95.928c1.928-.696 2.406-1.292 2.786-1.928" fill="none" stroke="#000" stroke-linecap="round" stroke-width="2.569"/>
 <path d="m60.218,95.928 .546,1.243c-3.367,8.974-8.858,17.654-11.26,27.329" fill="none" stroke="#000" stroke-linecap="round" stroke-width="1.4252"/>
 <path d="m60.218,95.928-.714-.178" fill="none" stroke="#000" stroke-linecap="round" stroke-width="4.1231"/>
 <path d="m59.504 95.75c-4.68 3.943-7.28 9.107-9 14.75" fill="none" stroke="#000" stroke-linecap="round" stroke-width="2.506"/>
 <path d="m191 55c0.291-0.65 0.838-1.619 1.5-2.5" fill="none" stroke="#000" stroke-linecap="round" stroke-width="1.291"/>
 <path d="m192.5 52.5c-1.146-1.446-3.383-1.066-4-3" fill="none" stroke="#000" stroke-linecap="round" stroke-width="2.1985"/>
 <path d="m161 47c0.289-0.65 0.838-1.619 1.5-2.5" fill="none" stroke="#000" stroke-linecap="round" stroke-width="1.291"/>
 <path d="m114.17 52.833c15.188-3.851 30.927-6.234 46.834-5.833" fill="none" stroke="#000" stroke-linecap="round" stroke-width="1.5686"/>
 <path d="m108.253,50.5c-.309-.831-.716-1.933-1.035-2.857" fill="none" stroke="#000" stroke-linecap="round" stroke-width="3.6515"/>
 <path d="m103 59c3.588-2.381 7.922-3.215 11.166-6.167" fill="none" stroke="#000" stroke-linecap="round" stroke-width="1.4577"/>
 <path d="m114.17,52.833c-.088-.532-.355-1.491-.666-2.333" fill="none" stroke="#000" stroke-linecap="round" stroke-width="2.1602"/>
 <path d="m113.5 50.5h-5.251" fill="none" stroke="#000" stroke-linecap="round" stroke-width="3.0822"/>
 <path d="m108.25 50.5c-2.326 1.486-3.722 4.01-6.749 4.333" fill="none" stroke="#000" stroke-linecap="round" stroke-width="3"/>
 <path d="m198.504,57.5c.213-.595.406-1.002.599-1.4" fill="none" stroke="#000" stroke-linecap="round" stroke-width="3.3912"/>
 <path d="m191 55c2.248 1.15 4.845 3.348 7.5 2.5" fill="none" stroke="#000" stroke-linecap="round" stroke-width="1.4676"/>
 <path d="m94.754,60.5 .25.5" fill="none" stroke="#000" stroke-linecap="round" stroke-width="4.4721"/>
 <path d="m95.004,61c2.893.768 5.435-1.021 8-2" fill="none" stroke="#000" stroke-linecap="round" stroke-width="2.0939"/>
 <path d="m103 59c-0.293-0.883-0.602-2.236-1.5-3.5" fill="none" stroke="#000" stroke-linecap="round" stroke-width="1.2649"/>
 <path d="m257.5 94.5c-2.008-0.812-4.558-0.871-6 1" fill="none" stroke="#000" stroke-linecap="round" stroke-width="2.0736"/>
 <path d="m250.17,123.167c.52-.196 1.808-.55 3-1.333" fill="none" stroke="#000" stroke-linecap="round" stroke-width="1.6733"/>
 <path d="m253.17 121.83c0.283-4.526-2.652-8.117-3.666-12.333" fill="none" stroke="#000" stroke-linecap="round" stroke-width="2.1366"/>
 <path d="m47.504,117.5c.371-1.333.516-2.667 1-4" fill="none" stroke="#000" stroke-linecap="round" stroke-width="2.1448"/>
 <path d="m250.17,123.167c-.209,1.313.75,2.573 1.082,3.833" fill="none" stroke="#000" stroke-linecap="round" stroke-width="1.8126"/>
 <path d="m251.252,127c1.176.029 2.19-.229 3.252-.5" fill="none" stroke="#000" stroke-linecap="round" stroke-width="2.1213"/>
 <path d="m252.17,130.167c.836-.124 1.978-.172 2.666-.333" fill="none" stroke="#000" stroke-linecap="round" stroke-width="2.1448"/>
 <path d="m251.252,127c-.256.702.179,1.958.918,3.167" fill="none" stroke="#000" stroke-linecap="round" stroke-width="1.6733"/>
 <path d="m253.504,134.5c.635-.03 1.192-.138 1.748-.25" fill="none" stroke="#000" stroke-linecap="round" stroke-width="3.1091"/>
 <path d="m252.17,130.167c-.234.918-.168,2.118-.125,3.139 .24.362.84.777 1.459,1.194" fill="none" stroke="#000" stroke-linecap="round" stroke-width="2.1712"/>
 <path d="m253.5 139.5h2.666" fill="none" stroke="#000" stroke-linecap="round" stroke-width="3.055"/>
 <path d="m253.5 134.5c-0.586 1.667-0.516 3.333 0 5" fill="none" stroke="#000" stroke-linecap="round" stroke-width="2.1381"/>
 <path d="m253.5 139.5c-0.815 2.574-0.369 5.728 1 8" fill="none" stroke="#000" stroke-linecap="round" stroke-width="1.8439"/>
 <path d="m251.504,176.5c.275.055.555.109.832.165" fill="none" stroke="#000" stroke-linecap="round" stroke-width="5.0497"/>
 <path d="m252.34 176.66c1.98-3.669 4.178-8.021 3.168-12.165" fill="none" stroke="#000" stroke-linecap="round" stroke-width="2.5131"/>
 <path d="m46.104,175.1c-.918,3.368-.075,7.985 3,10" fill="none" stroke="#000" stroke-linecap="round" stroke-width="2.4495"/>
 <path d="m253.36,178.714c-.486.851-.658,1.836-.855,2.786" fill="none" stroke="#000" stroke-linecap="round" stroke-width="3.266"/>
 <path d="m263.504,184.5c-.657-.339-2.02-.934-3-1.335" fill="none" stroke="#000" stroke-linecap="round" stroke-width="2.9326"/>
 <path d="m260.1 182.9c-0.75 0.974-1.042 2.321-1.599 3.602" fill="none" stroke="#000" stroke-linecap="round" stroke-width="2.3452"/>
 <path d="m244.67 195.66c2.168-1.026 3.511-3.26 4.834-5.165" fill="none" stroke="#000" stroke-linecap="round" stroke-width="3.0912"/>
 <path d="m57.004,198.75c.035-2.7-1.03-5.553-3.75-6.5" fill="none" stroke="#000" stroke-linecap="round" stroke-width="1.7541"/>
 <path d="m237.004,206.75c.647.146 1.617.418 2.5.75" fill="none" stroke="#000" stroke-linecap="round" stroke-width="2.1602"/>
 <path d="m43.504,207.5c1.333.053 2.666-.059 4-.335" fill="none" stroke="#000" stroke-linecap="round" stroke-width="3.0822"/>
 <path d="m199.65 244.78c1.518-0.971 3.501-1.496 4.256-1.686" fill="none" stroke="#000" stroke-linecap="round" stroke-width="3.266"/>
 <path d="m203.9 243.1c4.975-5.365 12.512-7.182 16.602-13.6" fill="none" stroke="#000" stroke-linecap="round" stroke-width="2.3184"/>
 <path d="m166.252,255.5c8.957.473 16.869-3.984 25.252-6" fill="none" stroke="#000" stroke-linecap="round" stroke-width="2.6578"/>
 <path d="m205.868,250.045c-1.256.298-2.277.498-3.363.788" fill="none" stroke="#000" stroke-linecap="round" stroke-width="3.1091"/>
 <path d="m111.504,251.5c-1,.02-2-.152-3-.334" fill="none" stroke="#000" stroke-linecap="round" stroke-width="3.0984"/>
 <path d="m131.5 254.5c6.515 4.098 16.578 4.367 24 2" fill="none" stroke="#000" stroke-linecap="round" stroke-width="2.7961"/>
 <path d="m155.504,256.5c-.002-.334 0-.667-.002-1" fill="none" stroke="#000" stroke-linecap="round" stroke-width="5"/>
 <path d="m155.5 255.5c-6.344-3.865-14.778-1.48-21.999-2.5" fill="none" stroke="#000" stroke-linecap="round" stroke-width="1.7728"/>
 <path d="m155.5 256.5c3.297 2.002 7.609 0.486 10.748-1" fill="none" stroke="#000" stroke-linecap="round" stroke-width="3.1091"/>
 <path d="m166.252,255.5c-.137-.607-.193-1.059-.248-1.5" fill="none" stroke="#000" stroke-linecap="round" stroke-width="4.062"/>
 <path d="m109.5 265.5c1.914-0.914 3.926-2.135 5-4" fill="none" stroke="#000" stroke-linecap="round" stroke-width="1.9685"/>
 <path d="m176 61c3.646 3.483 8.847 4.399 13.5 6" fill="none" stroke="#000" stroke-linecap="round" stroke-width="1.5089"/>
 <path d="m59.504,135.5c-.307-4.786 2.87-9.223 2-14" fill="none" stroke="#000" stroke-linecap="round" stroke-width="1.3519"/>
 <path d="m66.004 191.75c-5.48-15.861-9.895-32.025-7.5-49.25" fill="none" stroke="#000" stroke-linecap="round" stroke-width="1.8708"/>
 <path d="m115.75 236.75c25.279 8.352 52.797 5.503 76.75-4.25" fill="none" stroke="#000" stroke-linecap="round" stroke-width="1.8147"/>
 <path d="m192.5 232.5c18.765-12.633 35.66-28.55 43.5-51" fill="none" stroke="#000" stroke-linecap="round" stroke-width="1.7845"/>
 <path d="m224 90c6.043 3.116 11.442 7.209 14 14" fill="none" stroke="#000" stroke-linecap="round" stroke-width="1.5413"/>
 <path d="m238.5 108.5c9.352 14.033 10.998 34.736 10 52" fill="none" stroke="#000" stroke-linecap="round" stroke-width="2.0361"/>
 <path d="m233.5 110.5c7.91 20.512 12.022 44.405 4.5 66" fill="none" stroke="#000" stroke-linecap="round" stroke-width="1.937"/>
 <path d="m242 181c0.686-0.505 1.385-0.784 1.966-1.098 1.178-3.797 2.687-7.401 3.034-11.402" fill="none" stroke="#000" stroke-linecap="round" stroke-width="1.6408"/>
 <path d="m62.004 194.66c-12.797-21.116-16.115-52.006-5-74.665" fill="none" stroke="#000" stroke-linecap="round" stroke-width="1.6737"/>
 <path d="m57.004 120c5.744-24.19 26.292-49.277 50.166-56.5" fill="none" stroke="#000" stroke-linecap="round" stroke-width="1.4559"/>
 <path d="m107.17 63.5c18.538-13.694 46.095-14.05 68.334-8.5" fill="none" stroke="#000" stroke-linecap="round" stroke-width="1.7238"/>
 <path d="m179.5 56.5c15.109 2.626 28.021 12.7 40 22" fill="none" stroke="#000" stroke-linecap="round" stroke-width="1.2259"/>
 <path d="m61.504 121.5c9.255-22.8 27.232-41.089 47.25-54.25" fill="none" stroke="#000" stroke-linecap="round" stroke-width="1.3771"/>
 <path d="m108.75 67.25c11.485-2.596 24.006-6.982 36.25-9.25" fill="none" stroke="#000" stroke-linecap="round" stroke-width="1.5639"/>
 <path d="m145 58c-0.65-0.708-1.619-1.162-2.5-1.5" fill="none" stroke="#000" stroke-linecap="round" stroke-width="1.8974"/>
 <path d="m145 58c10.094 0.54 21.176 2.842 31 3" fill="none" stroke="#000" stroke-linecap="round" stroke-width="2.225"/>
 <path d="m62.004 194.66c8.771 21.724 29.49 39.765 51.75 47.335" fill="none" stroke="#000" stroke-linecap="round" stroke-width="1.6763"/>
 <path d="m113.75 242c0.207-1.984 2.011-3.174 2-5.25" fill="none" stroke="#000" stroke-linecap="round" stroke-width="2.7613"/>
 <path d="m115.75 236.75c-19.322-10.511-38.509-23.9-48.25-43.75" fill="none" stroke="#000" stroke-linecap="round" stroke-width="1.5708"/>
 <path d="m113.754,242 .165.507c22.929,9.878 51.71,8.284 74.583-2.007" fill="none" stroke="#000" stroke-linecap="round" stroke-width="2.1762"/>
 <path d="m195.5 237c3.935-1.049 11.806-6.049 16.931-10.574 13.175-11.637 29.688-32.424 29.569-45.426" fill="none" stroke="#000" stroke-linecap="round" stroke-width="1.6638"/>
 <path d="m80.504 101.5c8.053-8.646 16.043-18.219 27-23" fill="none" stroke="#000" stroke-linecap="round" stroke-width="1.9197"/>
 <path d="m110.647,76.785c.9-.18 1.891-.371 2.857-.619" fill="none" stroke="#000" stroke-linecap="round" stroke-width="3.1091"/>
 <path d="m120.5 72.5c13.869-6.095 32.338-9.333 46.599-3.6" fill="none" stroke="#000" stroke-linecap="round" stroke-width="2.3071"/>
 <path d="m167.103,68.9c1.533-.036 2.976.4 4.401.933" fill="none" stroke="#000" stroke-linecap="round" stroke-width="3.8514"/>
 <path d="m119.5 68.5c18.605-6.856 41.023-8.425 59.667-0.333" fill="none" stroke="#000" stroke-linecap="round" stroke-width="1.472"/>
 <path d="m179.17,68.167c3.604.545 8.478,1.954 10.334,5.333" fill="none" stroke="#000" stroke-linecap="round" stroke-width="1.4761"/>
 <path d="m189.504,73.5c2.406-1.464 4.562,1.243 6.168,2.53-.062.392-.205.905-.35,1.424-.162.238-.324.475-.486.713" fill="none" stroke="#000" stroke-linecap="round" stroke-width="1.5242"/>
 <path d="m194.84 78.167c8.254 5.057 15.498 12.116 22 19" fill="none" stroke="#000" stroke-linecap="round" stroke-width="2.0216"/>
 <path d="m216.836,97.167c.861-.429 1.438-.744 1.828-1.209-3.156-4.703-7.205-9.825-12.16-12.458" fill="none" stroke="#000" stroke-linecap="round" stroke-width="1.1922"/>
 <path d="m216.84 97.167c0.771 1.735 1.809 3.498 3.416 4.583" fill="none" stroke="#000" stroke-linecap="round" stroke-width="2.2361"/>
 <path d="m220.25 101.75c3.379-2.111 4.886 2.949 5.752 5.25" fill="none" stroke="#000" stroke-linecap="round" stroke-width="1.4832"/>
 <path d="m226 107c2.525 1.768 3.127 5.162 4 8" fill="none" stroke="#000" stroke-linecap="round" stroke-width="1.2367"/>
 <path d="m230 115c1.347 1.715 3.067 4.147 0.897 6.1" fill="none" stroke="#000" stroke-linecap="round" stroke-width="1.834"/>
 <path d="m230.903,121.1c.012.038.02.076.028.114" fill="none" stroke="#000" stroke-linecap="round" stroke-width="4.1231"/>
 <path d="m230.931,121.214c.94.402 1.463.632 1.967.854 .613,2.636 2.229,5.038 2.106,7.933" fill="none" stroke="#000" stroke-linecap="round" stroke-width="1.6159"/>
 <path d="m235 130c0.465 1.522 1.215 3.191 0.832 4.833" fill="none" stroke="#000" stroke-linecap="round" stroke-width="1.6997"/>
 <path d="m235.836,134.833c.73,2.682 1.603,5.879.668,8.667" fill="none" stroke="#000" stroke-linecap="round" stroke-width="1.75"/>
 <path d="m236.5 143.5c1.322 1.6 1.479 4.423 0 6" fill="none" stroke="#000" stroke-linecap="round" stroke-width="1.3784"/>
 <path d="m232.38 170.32c2.896 2.554 1.175 7.562-1.881 9.178" fill="none" stroke="#000" stroke-linecap="round" stroke-width="1.8629"/>
 <path d="m202.84 215.83c-2.98 1.254-5.137 3.914-8.332 4.667" fill="none" stroke="#000" stroke-linecap="round" stroke-width="2.0656"/>
 <path d="m193.252,225c.646-.18 1.42-.391 2.252-.5" fill="none" stroke="#000" stroke-linecap="round" stroke-width="1.5275"/>
 <path d="m84.004,208c-.948-.387-1.395-1.271-2-2" fill="none" stroke="#000" stroke-linecap="round" stroke-width="1.2247"/>
 <path d="m65.504,141.5c1.452-4.005.092-9.43 3.75-12.25" fill="none" stroke="#000" stroke-linecap="round" stroke-width="2.189"/>
 <path d="m72.504,117.5c.478-2.095 1.502-3.902 2-6" fill="none" stroke="#000" stroke-linecap="round" stroke-width="2.1448"/>
 <path d="m65.504 125.5c2.383-4.797 3.22-10.292 6.5-14.5" fill="none" stroke="#000" stroke-linecap="round" stroke-width="1.2383"/>
 <path d="m109.5 72.5c-11.11 7.554-23.64 15.205-30.5 27.5" fill="none" stroke="#000" stroke-linecap="round" stroke-width="1.3315"/>
 <path d="m179.17,68.167c-.092.302-.131.812-.166,1.333" fill="none" stroke="#000" stroke-linecap="round" stroke-width="2.1213"/>
 <path d="m189.504,73.5-.252.75" fill="none" stroke="#000" stroke-linecap="round" stroke-width="3.1623"/>
 <path d="m126.5 91.5c12.832-4.041 26.161-4.605 39.5-3" fill="none" stroke="#000" stroke-linecap="round" stroke-width="2.7252"/>
 <path d="m166 88.5c-0.937-1.714-1.457-4.055 0.099-5.6" fill="none" stroke="#000" stroke-linecap="round" stroke-width="2.273"/>
 <path d="m165.5 81.5c0.871-1.622 1.549-3.21 2-5" fill="none" stroke="#000" stroke-linecap="round" stroke-width="2.1506"/>
 <path d="m167.1 68.9c-2.122 1.897-0.776 4.664 1 6.2" fill="none" stroke="#000" stroke-linecap="round" stroke-width="2.5355"/>
 <path d="m169.5 90.5c14.723 5.752 25.91 17.681 34.748 30.25" fill="none" stroke="#000" stroke-linecap="round" stroke-width="2.0665"/>
 <path d="m204.25 120.75c2.225-1.21 4.283-2.644 6.395-4.036" fill="none" stroke="#000" stroke-linecap="round" stroke-width="2.2962"/>
 <path d="m210.65 116.71c1.01-2.365 4.165-1.164 5.857-2.714" fill="none" stroke="#000" stroke-linecap="round" stroke-width="2.6629"/>
 <path d="m194.84 78.167c-2.098-1.062-4.588-1.378-5.584-3.917" fill="none" stroke="#000" stroke-linecap="round" stroke-width="2.1742"/>
 <path d="m189.252,74.25c-3.381.467-6.342-2.484-9.748-2.75" fill="none" stroke="#000" stroke-linecap="round" stroke-width="2.4615"/>
 <path d="m90.504 127.5c6.594-13.261 17.01-24.472 29.25-32.75" fill="none" stroke="#000" stroke-linecap="round" stroke-width="2.0487"/>
 <path d="m119.75 94.75c-0.961-1.559-1.647-3.282-2.75-4.75" fill="none" stroke="#000" stroke-linecap="round" stroke-width="2.2678"/>
 <path d="m116 88c-0.372-0.962-0.517-2.15-1-3" fill="none" stroke="#000" stroke-linecap="round" stroke-width="1.2649"/>
 <path d="m117 90c0.935-0.641 1.684-1.024 2.5-1.5" fill="none" stroke="#000" stroke-linecap="round" stroke-width="2.5495"/>
 <path d="m88.504 133.5c-1.418 13.764-1.984 28.986 4 42" fill="none" stroke="#000" stroke-linecap="round" stroke-width="2.625"/>
 <path d="m95.004 182c7.436 10.264 17.002 19.354 27.833 25.5" fill="none" stroke="#000" stroke-linecap="round" stroke-width="2.6721"/>
 <path d="m131.5 210.5c13.131 4.277 26.894 2.559 40-1.335" fill="none" stroke="#000" stroke-linecap="round" stroke-width="3.1836"/>
 <path d="m182.5 203.5c9.918-8.232 18.887-18.217 24-30" fill="none" stroke="#000" stroke-linecap="round" stroke-width="2.453"/>
 <path d="m209 164.5c3.979-12.282 0.927-24.968-1.5-37" fill="none" stroke="#000" stroke-linecap="round" stroke-width="2.582"/>
 <path d="m119.754,94.75c1.824-.361 2.905-.873 4.083-2.25" fill="none" stroke="#000" stroke-linecap="round" stroke-width="2.9721"/>
 <path d="m222.79,108.357 .43.286" fill="none" stroke="#000" stroke-linecap="round" stroke-width="3.6055"/>
 <path d="m220.25 101.75c1.529 1.986 1.785 4.26 2.537 6.607" fill="none" stroke="#000" stroke-linecap="round" stroke-width="2.5226"/>
 <path d="m226 107c-0.998 0.443-2.115 1.211-2.787 1.643" fill="none" stroke="#000" stroke-linecap="round" stroke-width="1.5811"/>
 <path d="m222.79,108.357c-1.986.444-3.229,1.235-4.285,2.143" fill="none" stroke="#000" stroke-linecap="round" stroke-width="2.1712"/>
 <path d="m210.647,116.714c.559,1.133.82,1.892 1.189,2.786" fill="none" stroke="#000" stroke-linecap="round" stroke-width="3.3912"/>
 <path d="m227.5 119.17c1 0.572 2 1.186 3 1.667" fill="none" stroke="#000" stroke-linecap="round" stroke-width="3.055"/>
 <path d="m230.004,115c-.651.292-1.619.838-2.5,1.5" fill="none" stroke="#000" stroke-linecap="round" stroke-width="1.291"/>
 <path d="m204.252,120.75c.361,1.824.873,2.905 2.252,4.083" fill="none" stroke="#000" stroke-linecap="round" stroke-width="2.8983"/>
 <path d="m224.5 170.5c1.246-2.559 5.352-1.773 7 0" fill="none" stroke="#000" stroke-linecap="round" stroke-width="2.2361"/>
 <path d="m231.5 170.5 0.881-0.178" fill="none" stroke="#000" stroke-linecap="round" stroke-width="5.099"/>
 <path d="m232.38 170.32 0.117-0.157" fill="none" stroke="#000" stroke-linecap="round" stroke-width="5"/>
 <path d="m232.5 170.16c0.402-2.597-0.121-5.69 2.002-7.665" fill="none" stroke="#000" stroke-linecap="round" stroke-width="2.4495"/>
 <path d="m232.5 131.5c1.026-0.672 1.771-0.992 2.5-1.5" fill="none" stroke="#000" stroke-linecap="round" stroke-width="1.5811"/>
 <path d="m230.93 121.21c-0.925 3.673 1.321 6.713 1.573 10.286" fill="none" stroke="#000" stroke-linecap="round" stroke-width="2.3887"/>
 <path d="m69.254 129.25c1.323 1.327 3.455 2.291 5.25 1.25" fill="none" stroke="#000" stroke-linecap="round" stroke-width="2"/>
 <path d="m65.504,141.5c-.999,1.963.144,4.415-1.25,6.25" fill="none" stroke="#000" stroke-linecap="round" stroke-width="2.2136"/>
 <path d="m64.254,147.75c1.276,3.732.749,7.967.25,11.75" fill="none" stroke="#000" stroke-linecap="round" stroke-width="2.2942"/>
 <path d="m69.504,180.5c.809.523 1.409,1.257 2,2" fill="none" stroke="#000" stroke-linecap="round" stroke-width="2.2361"/>
 <path d="m82.504,132.5-.5.167" fill="none" stroke="#000" stroke-linecap="round" stroke-width="3.1623"/>
 <path d="m81.504 132.5c-1.667-1.143-3.334-1.74-5-3" fill="none" stroke="#000" stroke-linecap="round" stroke-width="1.6658"/>
 <path d="m82.504,132.5c.32-1 .609-2 1-3" fill="none" stroke="#000" stroke-linecap="round" stroke-width="2.3452"/>
 <path d="m82.504,132.5c1.886.941 4.122-.001 6,1" fill="none" stroke="#000" stroke-linecap="round" stroke-width="2.2361"/>
 <path d="m88.504,133.5c.833-1.289.935-2.715 1.428-4.286" fill="none" stroke="#000" stroke-linecap="round" stroke-width="3.0331"/>
 <path d="m232.504,131.5c.369,1.333.515,2.667 1,4" fill="none" stroke="#000" stroke-linecap="round" stroke-width="2.1448"/>
 <path d="m233.504,135.5c1.037-.341 1.693-.458 2.332-.667" fill="none" stroke="#000" stroke-linecap="round" stroke-width="2.1602"/>
 <path d="m234.752,143.75c.529-.137 1.139-.195 1.752-.25" fill="none" stroke="#000" stroke-linecap="round" stroke-width="3.1091"/>
 <path d="m233.5 135.5c0.992 2.67-0.24 5.756 1.248 8.25" fill="none" stroke="#000" stroke-linecap="round" stroke-width="2.4083"/>
 <path d="m65.504,141.5c-.848-.054-1.714.063-2.592.305-.617,1.955-.999,4.952 1.342,5.945" fill="none" stroke="#000" stroke-linecap="round" stroke-width="1.627"/>
 <path d="m234.752,143.75c-.353,1.879-.412,3.887.084,5.75" fill="none" stroke="#000" stroke-linecap="round" stroke-width="3.0912"/>
 <path d="m232.5 170.16c2.81-0.603 4.103-4.198 3.002-6.665" fill="none" stroke="#000" stroke-linecap="round" stroke-width="2.0207"/>
 <path d="m215.504,167.5c-1.334-.451-2.668-.432-4-.5" fill="none" stroke="#000" stroke-linecap="round" stroke-width="2.1381"/>
 <path d="m231.5 170.5c-0.646 1.238-0.896 1.953-1.287 2.855" fill="none" stroke="#000" stroke-linecap="round" stroke-width="3.6968"/>
 <path d="m202.84 215.83c0.478-0.698 1.353-1.485 2.668-2.333" fill="none" stroke="#000" stroke-linecap="round" stroke-width="2.6186"/>
 <path d="m205.5 213.5c1.377-1.97 3.127-3.616 5.332-4.667" fill="none" stroke="#000" stroke-linecap="round" stroke-width="1.954"/>
 <path d="m210.84 208.83c1.011-2.528 3.022-4.778 5.668-5.668" fill="none" stroke="#000" stroke-linecap="round" stroke-width="2.3094"/>
 <path d="m216.5 203.16c0.602-4.128 4.197-7.007 6.332-10.332" fill="none" stroke="#000" stroke-linecap="round" stroke-width="2.1026"/>
 <path d="m222.84 192.83c1.131-1.817 1.498-4.399 3.668-5.333" fill="none" stroke="#000" stroke-linecap="round" stroke-width="2"/>
 <path d="m90.504 184.83c2.017-1.341 3.394-1.996 4.5-2.833" fill="none" stroke="#000" stroke-linecap="round" stroke-width="2.4785"/>
 <path d="m95.004,182c.162-.273-1.362-2.3-2.5-3.5" fill="none" stroke="#000" stroke-linecap="round" stroke-width="3.4641"/>
 <path d="m68.004,181.5c.632,1.324.085,3.42 2,3.75" fill="none" stroke="#000" stroke-linecap="round" stroke-width="1.6202"/>
 <path d="m70.004,185.25 1.5-.75" fill="none" stroke="#000" stroke-linecap="round" stroke-width="2.2361"/>
 <path d="m83.504,204c.947.424 1.394,1.426 2,2.5" fill="none" stroke="#000" stroke-linecap="round" stroke-width="1.9365"/>
 <path d="m98.504 218.5c3.561 1.532 6.708 3.796 10 6" fill="none" stroke="#000" stroke-linecap="round" stroke-width="2.095"/>
 <path d="m109.14,225.954c1.255-.319 2.278-.347 3.364-.454" fill="none" stroke="#000" stroke-linecap="round" stroke-width="3.0822"/>
 <path d="m84.004,188c.954-.458 1.772-.811 2.5-1" fill="none" stroke="#000" stroke-linecap="round" stroke-width="1.5"/>
 <path d="m70.004,185.25c-.179,2.135 1.162,3.922 2,5.75" fill="none" stroke="#000" stroke-linecap="round" stroke-width="1.6787"/>
 <path d="m72.004,191c.995-.443 2.114-1.212 2.785-1.645" fill="none" stroke="#000" stroke-linecap="round" stroke-width="1.5811"/>
 <path d="m74.79,189.355c-.181-.899-.371-1.891-.619-2.855" fill="none" stroke="#000" stroke-linecap="round" stroke-width="3.1091"/>
 <path d="m222.836,192.833c.795.438 1.517.737 2.168,1.167" fill="none" stroke="#000" stroke-linecap="round" stroke-width="1.291"/>
 <path d="m225 194c1.488-1.488 2.365-3.52 3-5.5" fill="none" stroke="#000" stroke-linecap="round" stroke-width="1.5954"/>
 <path d="m72.004,191c.364,1.131 1.585,2.53 2.5,3.5" fill="none" stroke="#000" stroke-linecap="round" stroke-width="1.4832"/>
 <path d="m216.5 203.16 0.498 0.335" fill="none" stroke="#000" stroke-linecap="round" stroke-width="3.6055"/>
 <path d="m217 203.5c4.24-1.236 6.133-5.87 8.002-9.5" fill="none" stroke="#000" stroke-linecap="round" stroke-width="1.5679"/>
 <path d="m210.836,208.833c.795.438 1.517.737 2.168,1.167" fill="none" stroke="#000" stroke-linecap="round" stroke-width="1.291"/>
 <path d="m213 210c1.854-1.77 4.152-3.648 3.998-6.5" fill="none" stroke="#000" stroke-linecap="round" stroke-width="1.6787"/>
 <path d="m205.5 213.5 1.5 1.5" fill="none" stroke="#000" stroke-linecap="round" stroke-width="1.4142"/>
 <path d="m207 215c2.488-0.702 4.662-2.807 6-5" fill="none" stroke="#000" stroke-linecap="round" stroke-width="1.472"/>
 <path d="m129.67,233c1.177-.044 3.169-.064 4.834.5" fill="none" stroke="#000" stroke-linecap="round" stroke-width="2.1213"/>
 <path d="m154.5 234.83c3.242-1.16 6.699-0.537 10-1.333" fill="none" stroke="#000" stroke-linecap="round" stroke-width="2.6057"/>
 <path d="m164.504,233.5c1.621-.545 3.783-.443 5.248-.5" fill="none" stroke="#000" stroke-linecap="round" stroke-width="2.2361"/>
 <path d="m177.5 230.5c0.98-1.425 2.016-1.282 3-3" fill="none" stroke="#000" stroke-linecap="round" stroke-width="2.1909"/>
 <path d="m202.836,215.833c.429.862.744,1.438 1.209,1.829 1.496-.137 2.244-1.561 2.959-2.662" fill="none" stroke="#000" stroke-linecap="round" stroke-width="1.3301"/>
 <path d="m125.5 222.5c1.11-1.136 1.814-2.598 2.5-4" fill="none" stroke="#000" stroke-linecap="round" stroke-width="1.9272"/>
 <path d="m179.5 232c4.806-1.35 10.322-3.507 13.748-7" fill="none" stroke="#000" stroke-linecap="round" stroke-width="1.669"/>
 <path d="m125.5 230.5c0.985-1.84 2.221-3.895 1-6" fill="none" stroke="#000" stroke-linecap="round" stroke-width="2.0548"/>
 <path d="m109.5 227.5c1.627 1.939 4.389 3.072 6.856 2.714" fill="none" stroke="#000" stroke-linecap="round" stroke-width="2.1016"/>
 <path d="m116.36 230.21c2.963 3.242 8.666 5.124 13.144 4.286" fill="none" stroke="#000" stroke-linecap="round" stroke-width="1.6371"/>
 <path d="m129.504,234.5c.019-.607.091-1.059.166-1.5" fill="none" stroke="#000" stroke-linecap="round" stroke-width="3.0822"/>
 <path d="m129.67,233c-.761-.725-2.589-1.111-4.166-2.5" fill="none" stroke="#000" stroke-linecap="round" stroke-width="2.6992"/>
 <path d="m125.504,230.5c-1.516.17-2.72-.443-4-1" fill="none" stroke="#000" stroke-linecap="round" stroke-width="2.9439"/>
 <path d="m129.5 234.5c1.714 1.155 2.531 1.383 4 1.5" fill="none" stroke="#000" stroke-linecap="round" stroke-width="1.9685"/>
 <path d="m165.168,235.833c1.631.595 3.244-.075 4.336-1.333" fill="none" stroke="#000" stroke-linecap="round" stroke-width="2.0615"/>
 <path d="m154.504,236.5c3.144,1.78 7.525.775 10.664-.667" fill="none" stroke="#000" stroke-linecap="round" stroke-width="1.732"/>
 <path d="m165.168,235.833c-.088-.533-.354-1.491-.664-2.333" fill="none" stroke="#000" stroke-linecap="round" stroke-width="2.1602"/>
 <path d="m144.5 237.5c3.188 0.473 7.463 1.593 10-1" fill="none" stroke="#000" stroke-linecap="round" stroke-width="2.095"/>
 <path d="m154.5 236.5v-1.667" fill="none" stroke="#000" stroke-linecap="round" stroke-width="3"/>
 <path d="m154.504,234.833c-2.656-.919-5.305.447-8,.167" fill="none" stroke="#000" stroke-linecap="round" stroke-width="2.6833"/>
 <path d="m195.5 70.5c10.244 5.072 18.705 13.463 26 22" fill="none" stroke="#000" stroke-linecap="round" stroke-width="1.3247"/>
 <path d="m63.504,109.5c.915-1.318 1.618-1.912 2-3" fill="none" stroke="#000" stroke-linecap="round" stroke-width="1.2111"/>
</svg>
