<?xml version="1.0" encoding="UTF-8"?>
<svg viewBox="0 0 426.21051 426.21051" xmlns="http://www.w3.org/2000/svg">
 <g transform="matrix(.92388 -.38268 .38268 .92388 49.426 280.9)" fill="none" stroke="#000" stroke-linecap="round" stroke-width=".83529">
  <path d="m0 0h177.16"/>
 </g>
 <g transform="matrix(.88985 -.45626 .45626 .88985 49.426 280.9)" fill="none" stroke="#000" stroke-linecap="round" stroke-width=".83529">
  <path d="m0 0h141.98"/>
 </g>
 <g transform="matrix(.93388 -.35758 .35758 .93388 49.426 280.9)" fill="none" stroke="#000" stroke-linecap="round" stroke-width=".83529">
  <path d="m0 0h142"/>
 </g>
 <g transform="matrix(.94321 -.33221 .33221 .94321 49.426 280.9)" fill="none" stroke="#000" stroke-linecap="round" stroke-width=".83529">
  <path d="m0 0h141.99"/>
 </g>
 <g transform="matrix(.95184 -.30659 .30659 .95184 49.426 280.9)" fill="none" stroke="#000" stroke-linecap="round" stroke-width=".83529">
  <path d="m0 0h141.98"/>
 </g>
 <g transform="matrix(.92388 .38268 -.38268 .92388 49.426 145.31)" fill="none" stroke="#000" stroke-linecap="round" stroke-width=".83529">
  <path d="m0 0h177.16"/>
 </g>
 <g transform="matrix(.95184 .30659 -.30659 .95184 49.426 145.31)" fill="none" stroke="#000" stroke-linecap="round" stroke-width=".83529">
  <path d="m0 0h141.98"/>
 </g>
 <g transform="matrix(.9132 .4075 -.4075 .9132 49.426 145.31)" fill="none" stroke="#000" stroke-linecap="round" stroke-width=".83529">
  <path d="m0 0h142"/>
 </g>
 <g transform="matrix(.90186 .43204 -.43204 .90186 49.426 145.31)" fill="none" stroke="#000" stroke-linecap="round" stroke-width=".83529">
  <path d="m0 0h141.99"/>
 </g>
 <g transform="matrix(.88985 .45626 -.45626 .88985 49.426 145.31)" fill="none" stroke="#000" stroke-linecap="round" stroke-width=".83529">
  <path d="m0 0h141.98"/>
 </g>
 <g transform="matrix(.38268 -.92388 .92388 .38268 145.31 376.78)" fill="none" stroke="#000" stroke-linecap="round" stroke-width=".83529">
  <path d="m0 0h177.16"/>
 </g>
 <g transform="matrix(.30659 -.95184 .95184 .30659 145.31 376.78)" fill="none" stroke="#000" stroke-linecap="round" stroke-width=".83529">
  <path d="m0 0h141.98"/>
 </g>
 <g transform="matrix(.40751 -.9132 .9132 .40751 145.31 376.78)" fill="none" stroke="#000" stroke-linecap="round" stroke-width=".83529">
  <path d="m0 0h142"/>
 </g>
 <g transform="matrix(.43204 -.90185 .90185 .43204 145.31 376.78)" fill="none" stroke="#000" stroke-linecap="round" stroke-width=".83529">
  <path d="m0 0h141.99"/>
 </g>
 <g transform="matrix(.45626 -.88985 .88985 .45626 145.31 376.78)" fill="none" stroke="#000" stroke-linecap="round" stroke-width=".83529">
  <path d="m0 0h141.98"/>
 </g>
 <g transform="matrix(-.92388 .38268 -.38268 -.92388 376.78 145.31)" fill="none" stroke="#000" stroke-linecap="round" stroke-width=".83529">
  <path d="m0 0h177.16"/>
 </g>
 <g transform="matrix(-.88886 .45818 -.45818 -.88886 376.78 145.31)" fill="none" stroke="#000" stroke-linecap="round" stroke-width=".83529">
  <path d="m0 0h141.98"/>
 </g>
 <g transform="matrix(-.91291 .40817 -.40817 -.91291 376.78 145.31)" fill="none" stroke="#000" stroke-linecap="round" stroke-width=".83529">
  <path d="m0 0h142"/>
 </g>
 <g transform="matrix(-.90123 .43334 -.43334 -.90123 376.78 145.31)" fill="none" stroke="#000" stroke-linecap="round" stroke-width=".83529">
  <path d="m0 0h141.99"/>
 </g>
 <g transform="matrix(-.9525 .30453 -.30453 -.9525 376.78 145.31)" fill="none" stroke="#000" stroke-linecap="round" stroke-width=".83529">
  <path d="m0 0h141.98"/>
 </g>
 <g transform="matrix(-.38268 .92388 -.92388 -.38268 280.9 49.427)" fill="none" stroke="#000" stroke-linecap="round" stroke-width=".83529">
  <path d="m0 0h177.16"/>
 </g>
 <g transform="matrix(-.30453 .9525 -.9525 -.30453 280.9 49.427)" fill="none" stroke="#000" stroke-linecap="round" stroke-width=".83529">
  <path d="m0 0h141.98"/>
 </g>
 <g transform="matrix(-.3569 .93414 -.93414 -.3569 280.9 49.427)" fill="none" stroke="#000" stroke-linecap="round" stroke-width=".83529">
  <path d="m0 0h142"/>
 </g>
 <g transform="matrix(-.33084 .94369 -.94369 -.33084 280.9 49.427)" fill="none" stroke="#000" stroke-linecap="round" stroke-width=".83529">
  <path d="m0 0h141.99"/>
 </g>
 <g transform="matrix(-.45818 .88886 -.88886 -.45818 280.9 49.427)" fill="none" stroke="#000" stroke-linecap="round" stroke-width=".83529">
  <path d="m0 0h141.98"/>
 </g>
 <g transform="matrix(.38268 .92388 -.92388 .38268 145.31 49.427)" fill="none" stroke="#000" stroke-linecap="round" stroke-width=".83529">
  <path d="m0 0h177.16"/>
 </g>
 <g transform="matrix(.45818 .88886 -.88886 .45818 145.31 49.427)" fill="none" stroke="#000" stroke-linecap="round" stroke-width=".83529">
  <path d="m0 0h141.98"/>
 </g>
 <g transform="matrix(.40817 .91291 -.91291 .40817 145.31 49.427)" fill="none" stroke="#000" stroke-linecap="round" stroke-width=".83529">
  <path d="m0 0h142"/>
 </g>
 <g transform="matrix(.43334 .90123 -.90123 .43334 145.31 49.427)" fill="none" stroke="#000" stroke-linecap="round" stroke-width=".83529">
  <path d="m0 0h141.99"/>
 </g>
 <g transform="matrix(.30453 .9525 -.9525 .30453 145.31 49.427)" fill="none" stroke="#000" stroke-linecap="round" stroke-width=".83529">
  <path d="m0 0h141.98"/>
 </g>
 <g transform="matrix(-.38268 -.92388 .92388 -.38268 280.9 376.78)" fill="none" stroke="#000" stroke-linecap="round" stroke-width=".83529">
  <path d="m0 0h177.16"/>
 </g>
 <g transform="matrix(-.45818 -.88886 .88886 -.45818 280.9 376.78)" fill="none" stroke="#000" stroke-linecap="round" stroke-width=".83529">
  <path d="m0 0h141.98"/>
 </g>
 <g transform="matrix(-.40817 -.91291 .91291 -.40817 280.9 376.78)" fill="none" stroke="#000" stroke-linecap="round" stroke-width=".83529">
  <path d="m0 0h142"/>
 </g>
 <g transform="matrix(-.43334 -.90123 .90123 -.43334 280.9 376.78)" fill="none" stroke="#000" stroke-linecap="round" stroke-width=".83529">
  <path d="m0 0h141.99"/>
 </g>
 <g transform="matrix(-.30453 -.9525 .9525 -.30453 280.9 376.78)" fill="none" stroke="#000" stroke-linecap="round" stroke-width=".83529">
  <path d="m0 0h141.98"/>
 </g>
 <g transform="matrix(-.92388 -.38268 .38268 -.92388 376.78 280.9)" fill="none" stroke="#000" stroke-linecap="round" stroke-width=".83529">
  <path d="m0 0h177.16"/>
 </g>
 <g transform="matrix(-.9525 -.30453 .30453 -.9525 376.78 280.9)" fill="none" stroke="#000" stroke-linecap="round" stroke-width=".83529">
  <path d="m0 0h141.98"/>
 </g>
 <g transform="matrix(-.93414 -.3569 .3569 -.93414 376.78 280.9)" fill="none" stroke="#000" stroke-linecap="round" stroke-width=".83529">
  <path d="m0 0h142"/>
 </g>
 <g transform="matrix(-.94369 -.33084 .33084 -.94369 376.78 280.9)" fill="none" stroke="#000" stroke-linecap="round" stroke-width=".83529">
  <path d="m0 0h141.99"/>
 </g>
 <g transform="matrix(-.88886 -.45818 .45818 -.88886 376.78 280.9)" fill="none" stroke="#000" stroke-linecap="round" stroke-width=".83529">
  <path d="m0 0h141.98"/>
 </g>
 <g transform="matrix(.70711 -.70711 .70711 .70711 65.667 65.667)" fill="#fff" fill-rule="evenodd" stroke="#000" stroke-width=".4716">
  <path d="m10.695 208.54-8.9968-186.47c8.3002-4.9047 3.9614-14.903-1.6978-22.071l-2.3821e-14 208.54h10.695z"/>
 </g>
 <g transform="matrix(.70711 -.70711 .70711 .70711 58.105 73.229)" fill-rule="evenodd" stroke="#000" stroke-width=".4716">
  <path d="m0 208.54 8.9968-186.47c-8.3002-4.9047-3.9614-14.903 1.6978-22.071v208.54h-10.695z"/>
 </g>
 <g transform="matrix(-.70711 .70711 -.70711 -.70711 360.54 360.54)" fill-rule="evenodd" stroke="#000" stroke-width=".4716">
  <path d="m10.695 208.54-8.9968-186.47c8.3002-4.9046 3.9614-14.903-1.6978-22.071l-1.3767e-13 208.54h10.695z"/>
 </g>
 <g transform="matrix(-.70711 .70711 -.70711 -.70711 368.1 352.98)" fill="#fff" fill-rule="evenodd" stroke="#000" stroke-width=".4716">
  <path d="m0 208.54 8.9968-186.47c-8.3002-4.9046-3.9614-14.903 1.6978-22.071v208.54h-10.695z"/>
 </g>
 <g transform="matrix(-.70711 -.70711 .70711 -.70711 65.667 360.54)" fill="#fff" fill-rule="evenodd" stroke="#000" stroke-width=".4716">
  <path d="m10.695 208.54-8.9968-186.47c8.3002-4.9046 3.9614-14.903-1.6978-22.071l-2.558e-13 208.54h10.695z"/>
 </g>
 <g transform="matrix(-.70711 -.70711 .70711 -.70711 73.23 368.1)" fill-rule="evenodd" stroke="#000" stroke-width=".4716">
  <path d="m0 208.54 8.9968-186.47c-8.3002-4.9046-3.9614-14.903 1.6978-22.071v208.54h-10.695z"/>
 </g>
 <g transform="matrix(.70711 .70711 -.70711 .70711 360.54 65.666)" fill-rule="evenodd" stroke="#000" stroke-width=".4716">
  <path d="m10.695 208.54-8.9968-186.47c8.3002-4.9046 3.9614-14.903-1.6978-22.071v208.54h10.695z"/>
 </g>
 <g transform="matrix(.70711 .70711 -.70711 .70711 352.98 58.105)" fill="#fff" fill-rule="evenodd" stroke="#000" stroke-width=".4716">
  <path d="m0 208.54 8.9968-186.47c-8.3002-4.9046-3.9614-14.903 1.6978-22.071v208.54h-10.695z"/>
 </g>
 <g transform="matrix(0 1 -1 0 425.7 198.74)" fill="#fff" fill-rule="evenodd" stroke="#000" stroke-linejoin="round" stroke-width="1.0135">
  <path d="m12.411 28.73c0.8044-11.492-6.8162-11.492-6.6652-11.492 0 0 7.4696 0 8.6187-17.238v212.6l-14.364-14.365 12.411-169.5z"/>
 </g>
 <g transform="matrix(0 1 -1 0 425.7 213.11)" fill-rule="evenodd" stroke="#000" stroke-linejoin="round" stroke-width="1.0135">
  <path d="m1.9536 28.73c-0.8044-11.492 6.8162-11.492 6.6652-11.492 0 0-7.4696 0-8.6187-17.238l-6.9861e-14 212.6 14.364-14.365-12.411-169.5z"/>
 </g>
 <g transform="matrix(0 -1 1 0 .50676 227.47)" fill-rule="evenodd" stroke="#000" stroke-linejoin="round" stroke-width="1.0135">
  <path d="m12.411 28.73c0.8044-11.492-6.8163-11.492-6.6652-11.492 1e-5 0 7.4696 0 8.6188-17.238v212.6l-14.365-14.365 12.411-169.5z"/>
 </g>
 <g transform="matrix(0 -1 1 0 .50676 213.1)" fill="#fff" fill-rule="evenodd" stroke="#000" stroke-linejoin="round" stroke-width="1.0135">
  <path d="m1.9536 28.73c-0.8044-11.492 6.8163-11.492 6.6652-11.492 0 0-7.4696 0-8.6188-17.238l1.2434e-14 212.6 14.365-14.365-12.411-169.5z"/>
 </g>
 <g transform="translate(198.74 .50676)" fill="#fff" fill-rule="evenodd" stroke="#000" stroke-linejoin="round" stroke-width="1.0135">
  <path d="m12.411 28.73c0.8044-11.492-6.8162-11.492-6.6652-11.492 0 0 7.4696 0 8.6187-17.238v212.6l-14.364-14.365 12.411-169.5z"/>
 </g>
 <g transform="translate(213.11 .50676)" fill-rule="evenodd" stroke="#000" stroke-linejoin="round" stroke-width="1.0135">
  <path d="m1.9536 28.73c-0.8044-11.492 6.8162-11.492 6.6652-11.492 0 0-7.4696 0-8.6187-17.238l-5.6843e-14 212.6 14.364-14.365-12.411-169.5z"/>
 </g>
 <g transform="matrix(-1 0 0 -1 227.47 425.7)" fill-rule="evenodd" stroke="#000" stroke-linejoin="round" stroke-width="1.0135">
  <path d="m12.411 28.73c0.8044-11.492-6.8163-11.492-6.6652-11.492 1e-5 0 7.4696 0 8.6188-17.238v212.6l-14.365-14.365 12.411-169.5z"/>
 </g>
 <g transform="matrix(-1 0 0 -1 213.11 425.7)" fill="#fff" fill-rule="evenodd" stroke="#000" stroke-linejoin="round" stroke-width="1.0135">
  <path d="m1.9536 28.73c-0.8044-11.492 6.8163-11.492 6.6652-11.492 0 0-7.4696 0-8.6188-17.238l-2.6645e-14 212.6 14.365-14.365-12.411-169.5z"/>
 </g>
 <g transform="matrix(.70711 .70711 -.70711 .70711 213.11 213.11)" fill="none" stroke="#fff" stroke-linecap="round" stroke-width="1.0135">
  <path d="m0 0h20.318"/>
 </g>
</svg>
